<?xml version="1.0" encoding="UTF-8"?>
<svg width="2655px" height="167px" viewBox="0 0 2655 167" version="1.1" xmlns="http://www.w3.org/2000/svg" xmlns:xlink="http://www.w3.org/1999/xlink">
    <!-- Generator: Sketch 46.2 (44496) - http://www.bohemiancoding.com/sketch -->
    <title>Group</title>
    <desc>Created with Sketch.</desc>
    <defs></defs>
    <g id="Page-1" stroke="none" stroke-width="1" fill="none" fill-rule="evenodd">
        <g id="Group" fill="#FFFFFF">
            <polygon id="Triangle" transform="translate(73.742188, 114.199219) scale(1, -1) translate(-73.742188, -114.199219) " points="73.7421875 62 147.484375 166.398438 0 166.398438"></polygon>
            <polygon id="Triangle" transform="translate(221.226562, 114.199219) scale(1, -1) translate(-221.226562, -114.199219) " points="221.226563 62 294.96875 166.398438 147.484375 166.398438"></polygon>
            <polygon id="Triangle" transform="translate(368.710938, 114.199219) scale(1, -1) translate(-368.710938, -114.199219) " points="368.710938 62 442.453125 166.398438 294.96875 166.398438"></polygon>
            <polygon id="Triangle" transform="translate(516.195312, 114.199219) scale(1, -1) translate(-516.195312, -114.199219) " points="516.195313 62 589.9375 166.398438 442.453125 166.398438"></polygon>
            <polygon id="Triangle" transform="translate(663.679688, 114.199219) scale(1, -1) translate(-663.679688, -114.199219) " points="663.679688 62 737.421875 166.398438 589.9375 166.398438"></polygon>
            <polygon id="Triangle" transform="translate(811.164062, 114.199219) scale(1, -1) translate(-811.164062, -114.199219) " points="811.164063 62 884.90625 166.398438 737.421875 166.398438"></polygon>
            <polygon id="Triangle" transform="translate(958.648438, 114.199219) scale(1, -1) translate(-958.648438, -114.199219) " points="958.648438 62 1032.39063 166.398438 884.90625 166.398438"></polygon>
            <polygon id="Triangle" transform="translate(1106.132812, 114.199219) scale(1, -1) translate(-1106.132812, -114.199219) " points="1106.13281 62 1179.875 166.398438 1032.39062 166.398438"></polygon>
            <polygon id="Triangle" transform="translate(1253.617188, 114.199219) scale(1, -1) translate(-1253.617188, -114.199219) " points="1253.61719 62 1327.35938 166.398438 1179.875 166.398438"></polygon>
            <polygon id="Triangle" transform="translate(1401.101562, 114.199219) scale(1, -1) translate(-1401.101562, -114.199219) " points="1401.10156 62 1474.84375 166.398438 1327.35938 166.398438"></polygon>
            <polygon id="Triangle" transform="translate(1548.585938, 114.199219) scale(1, -1) translate(-1548.585938, -114.199219) " points="1548.58594 62 1622.32813 166.398438 1474.84375 166.398438"></polygon>
            <polygon id="Triangle" transform="translate(1696.070312, 114.199219) scale(1, -1) translate(-1696.070312, -114.199219) " points="1696.07031 62 1769.8125 166.398438 1622.32812 166.398438"></polygon>
            <polygon id="Triangle" transform="translate(1843.554688, 114.199219) scale(1, -1) translate(-1843.554688, -114.199219) " points="1843.55469 62 1917.29688 166.398438 1769.8125 166.398438"></polygon>
            <polygon id="Triangle" transform="translate(1991.039062, 114.199219) scale(1, -1) translate(-1991.039062, -114.199219) " points="1991.03906 62 2064.78125 166.398438 1917.29688 166.398438"></polygon>
            <polygon id="Triangle" transform="translate(2138.523438, 114.199219) scale(1, -1) translate(-2138.523438, -114.199219) " points="2138.52344 62 2212.26562 166.398438 2064.78125 166.398438"></polygon>
            <polygon id="Triangle" transform="translate(2286.007812, 114.199219) scale(1, -1) translate(-2286.007812, -114.199219) " points="2286.00781 62 2359.75 166.398438 2212.26562 166.398438"></polygon>
            <polygon id="Triangle" transform="translate(2433.492188, 114.199219) scale(1, -1) translate(-2433.492188, -114.199219) " points="2433.49219 62 2507.23438 166.398438 2359.75 166.398438"></polygon>
            <polygon id="Triangle" transform="translate(2580.976562, 114.199219) scale(1, -1) translate(-2580.976562, -114.199219) " points="2580.97656 62 2654.71875 166.398438 2507.23438 166.398438"></polygon>
            <rect id="Rectangle" x="0" y="0.980232481" width="2654.71875" height="61.0197675"></rect>
        </g>
    </g>
</svg>