<svg xmlns="http://www.w3.org/2000/svg" width="648" height="72" viewBox="0 0 648 72"><path fill="#0b0b15" d="M47.40 12.30L20.90 12.30L20.90 29.80L44.40 29.80L44.40 40.90L20.90 40.90L20.90 59.40L47.40 59.40L47.40 70.80L6.90 70.80L6.90 0.90L47.40 0.90L47.40 12.30ZM74.10 1L74.10 59.70L97.10 59.70L97.10 70.80L60.10 70.80L60.10 1L74.10 1ZM102.60 35.80Q102.60 25.50 107.25 17.35Q111.90 9.20 119.95 4.65Q128 0.10 138 0.10L138 0.10Q149.70 0.10 158.50 6.10Q167.30 12.10 170.80 22.70L170.80 22.70L154.70 22.70Q152.30 17.70 147.95 15.20Q143.60 12.70 137.90 12.70L137.90 12.70Q131.80 12.70 127.05 15.55Q122.30 18.40 119.65 23.60Q117.00 28.80 117.00 35.80L117.00 35.80Q117.00 42.70 119.65 47.95Q122.30 53.20 127.05 56.05Q131.80 58.90 137.90 58.90L137.90 58.90Q143.60 58.90 147.95 56.35Q152.30 53.80 154.70 48.80L154.70 48.80L170.80 48.80Q167.30 59.50 158.55 65.45Q149.80 71.40 138 71.40L138 71.40Q128 71.40 119.95 66.85Q111.90 62.30 107.25 54.20Q102.60 46.10 102.60 35.80L102.60 35.80ZM215.20 71.50Q205.40 71.50 197.20 66.90Q189.00 62.30 184.20 54.15Q179.40 46 179.40 35.70L179.40 35.70Q179.40 25.50 184.20 17.35Q189.00 9.20 197.20 4.60Q205.40 0 215.20 0L215.20 0Q225.10 0 233.25 4.60Q241.40 9.20 246.15 17.35Q250.90 25.50 250.90 35.70L250.90 35.70Q250.90 46 246.15 54.15Q241.40 62.30 233.20 66.90Q225.00 71.50 215.20 71.50L215.20 71.50ZM215.20 59Q221.50 59 226.30 56.15Q231.10 53.30 233.80 48Q236.50 42.70 236.50 35.70L236.50 35.70Q236.50 28.70 233.80 23.45Q231.10 18.20 226.30 15.40Q221.50 12.60 215.20 12.60L215.20 12.60Q208.90 12.60 204.05 15.40Q199.20 18.20 196.50 23.45Q193.80 28.70 193.80 35.70L193.80 35.70Q193.80 42.70 196.50 48Q199.20 53.30 204.05 56.15Q208.90 59 215.20 59L215.20 59ZM321.60 1L337.40 1L337.40 70.80L323.40 70.80L323.40 25.40L304.70 70.80L294.10 70.80L275.30 25.40L275.30 70.80L261.30 70.80L261.30 1L277.20 1L299.40 52.90L321.60 1ZM391.70 12.30L365.20 12.30L365.20 29.80L388.70 29.80L388.70 40.90L365.20 40.90L365.20 59.40L391.70 59.40L391.70 70.80L351.20 70.80L351.20 0.90L391.70 0.90L391.70 12.30ZM464.10 0.90L464.10 70.80L450.10 70.80L418.40 22.90L418.40 70.80L404.40 70.80L404.40 0.90L418.40 0.90L450.10 48.90L450.10 0.90L464.10 0.90ZM502.00 71.50Q494.70 71.50 488.85 69Q483.00 66.50 479.60 61.80Q476.20 57.10 476.10 50.70L476.10 50.70L491.10 50.70Q491.40 55 494.15 57.50Q496.90 60 501.70 60L501.70 60Q506.60 60 509.40 57.65Q512.20 55.30 512.20 51.50L512.20 51.50Q512.20 48.40 510.30 46.40Q508.40 44.40 505.55 43.25Q502.70 42.10 497.70 40.70L497.70 40.70Q490.90 38.70 486.65 36.75Q482.40 34.80 479.35 30.85Q476.30 26.90 476.30 20.30L476.30 20.30Q476.30 14.10 479.40 9.50Q482.50 4.90 488.10 2.45Q493.70 0 500.90 0L500.90 0Q511.70 0 518.45 5.25Q525.20 10.50 525.90 19.90L525.90 19.90L510.50 19.90Q510.30 16.30 507.45 13.95Q504.60 11.60 499.90 11.60L499.90 11.60Q495.80 11.60 493.35 13.70Q490.90 15.80 490.90 19.80L490.90 19.80Q490.90 22.60 492.75 24.45Q494.60 26.30 497.35 27.45Q500.10 28.60 505.10 30.10L505.10 30.10Q511.90 32.10 516.20 34.10Q520.50 36.10 523.60 40.10Q526.70 44.10 526.70 50.60L526.70 50.60Q526.70 56.20 523.80 61Q520.90 65.80 515.30 68.65Q509.70 71.50 502.00 71.50L502.00 71.50ZM586.20 70.80L581.60 57.50L553.80 57.50L549.20 70.80L534.50 70.80L559.60 0.90L575.90 0.90L601.00 70.80L586.20 70.80ZM557.60 46.30L577.80 46.30L567.70 17.10L557.60 46.30ZM624.40 1L624.40 59.70L647.40 59.70L647.40 70.80L610.40 70.80L610.40 1L624.40 1Z"></path></svg>