<?xml version="1.0" standalone="no"?><svg xmlns:xlink="http://www.w3.org/1999/xlink" xmlns="http://www.w3.org/2000/svg" viewBox="0 0 2000 1600" preserveAspectRatio="xMaxYMax slice"><g transform="scale(2.711864406779661)"><rect x="0" y="0" width="737.5" height="590" fill="#ffffff"/><rect x="0" y="0" width="147.5" height="147.5" fill="#ffffff"/><circle cx="36.875" cy="36.875" r="36.875" fill="#f5f5f5"/><rect x="73.75" y="0" width="73.75" height="73.75" fill="#f0f0f0"/><circle cx="36.875" cy="110.625" r="36.875" fill="#e2e2e2"/><rect x="73.75" y="73.75" width="73.75" height="73.75" fill="#f8f8f8"/><rect x="147.5" y="0" width="147.5" height="147.5" fill="#ffffff"/><path d="M 147.5 73.75 A 73.75 73.75 0 0 0 221.25 0 L 147.5 0" fill="#e9e9e9"/><path d="M 221.25 0 A 73.75 73.75 0 0 0 295 73.75 L 295 0" fill="#dadada"/><path d="M 147.5 73.75 A 73.75 73.75 0 0 1 221.25 147.5 L 147.5 147.5" fill="#e7e7e7"/><path d="M 221.25 147.5 A 73.75 73.75 0 0 1  295 73.75 L 295 147.5" fill="#f1f1f1"/><polygon points="295,0 442.5,0 442.5,147.5" fill="#f9f9f9"/><rect x="442.5" y="0" width="147.5" height="147.5" fill="#ffffff"/><polygon points="442.5,0 516.25,0 442.5,73.75" fill="#f7f7f7"/><polygon points="516.25,0 590,0 590,73.75" fill="#cccccc"/><polygon points="442.5,73.75 516.25,147.5 442.5,147.5" fill="#d5d5d5"/><polygon points="590,73.75 590,147.5 516.25,147.5" fill="#ebebeb"/><rect x="590" y="0" width="147.5" height="147.5" fill="#f5f5f5"/><rect x="0" y="147.5" width="147.5" height="147.5" fill="#ffffff"/><circle cx="36.875" cy="184.375" r="36.875" fill="#e5e5e5"/><rect x="73.75" y="147.5" width="73.75" height="73.75" fill="#efefef"/><circle cx="36.875" cy="258.125" r="36.875" fill="#d9d9d9"/><rect x="73.75" y="221.25" width="73.75" height="73.75" fill="#cdcdcd"/><path d="M 147.5 295 A 147.5 147.5 0 0 1  295 147.5 L 147.5 295 A 147.5 147.5 0 0 0 295 147.5" fill="#cecece"/><rect x="295" y="147.5" width="147.5" height="147.5" fill="#ffffff"/><path d="M 295 221.25 A 73.75 73.75 0 0 1  368.75 147.5 L 368.75 221.25" fill="#efefef"/><path d="M 368.75 147.5 A 73.75 73.75 0 0 1 442.5 221.25 L 368.75 221.25" fill="#fefefe"/><path d="M 295 221.25 A 73.75 73.75 0 0 0 368.75 295 L 368.75 221.25" fill="#f5f5f5"/><path d="M 368.75 295 A 73.75 73.75 0 0 0 442.5 221.25 L 368.75 221.25" fill="#fafafa"/><rect x="442.5" y="147.5" width="147.5" height="147.5" fill="#ffffff"/><circle cx="479.375" cy="184.375" r="36.875" fill="#fbfbfb"/><rect x="516.25" y="147.5" width="73.75" height="73.75" fill="#e5e5e5"/><circle cx="479.375" cy="258.125" r="36.875" fill="#f3f3f3"/><rect x="516.25" y="221.25" width="73.75" height="73.75" fill="#ffffff"/><rect x="590" y="147.5" width="147.5" height="147.5" fill="#ffffff"/><polygon points="590,147.5 663.75,147.5 590,221.25" fill="#d1d1d1"/><polygon points="737.5,147.5 737.5,221.25 663.75,221.25" fill="#ececec"/><polygon points="590,221.25 663.75,221.25 663.75,295" fill="#e3e3e3"/><polygon points="663.75,221.25 737.5,295 663.75,295" fill="#f5f5f5"/><rect x="0" y="295" width="147.5" height="147.5" fill="#ffffff"/><path d="M 0 368.75 A 73.75 73.75 0 0 1  73.75 295 L 73.75 368.75" fill="#f5f5f5"/><path d="M 73.75 295 A 73.75 73.75 0 0 1 147.5 368.75 L 73.75 368.75" fill="#f2f2f2"/><path d="M 0 368.75 A 73.75 73.75 0 0 0 73.75 442.5 L 73.75 368.75" fill="#f2f2f2"/><path d="M 73.75 442.5 A 73.75 73.75 0 0 0 147.5 368.75 L 73.75 368.75" fill="#d4d4d4"/><rect x="147.5" y="295" width="147.5" height="147.5" fill="#ffffff"/><path d="M 147.5 368.75 A 73.75 73.75 0 0 1 221.25 295 L 221.25 313.4375 A 55.3125 55.3125 0 0 0 165.9375 368.75" fill="#f4f4f4"/><path d="M 221.25 295 A 73.75 73.75 0 0 1 295 368.75 L 276.5625 368.75 A 55.3125 55.3125 0 0 0 221.25 313.4375" fill="#e1e1e1"/><path d="M 147.5 368.75 A 73.75 73.75 0 0 0 221.25 442.5 L 221.25 424.0625 A 55.3125 55.3125 0 0 1 165.9375 368.75" fill="#dddddd"/><path d="M 221.25 442.5 A 73.75 73.75 0 0 0 295 368.75 L 276.5625 368.75 A 55.3125 55.3125 0 0 1 221.25 424.0625" fill="#f9f9f9"/><rect x="295" y="295" width="147.5" height="147.5" fill="#ffffff"/><path d="M 295 295 A 73.75 73.75 0 0 1 368.75 368.75 L 295 368.75" fill="#e4e4e4"/><path d="M 368.75 368.75 A 73.75 73.75 0 0 1  442.5 295 L 442.5 368.75" fill="#fafafa"/><path d="M 295 442.5 A 73.75 73.75 0 0 0 368.75 368.75 L 295 368.75" fill="#f6f6f6"/><path d="M 368.75 368.75 A 73.75 73.75 0 0 0 442.5 442.5 L 442.5 368.75" fill="#fdfdfd"/><rect x="442.5" y="295" width="147.5" height="147.5" fill="#ffffff"/><path d="M 442.5 368.75 A 73.75 73.75 0 0 1 516.25 295 L 516.25 313.4375 A 55.3125 55.3125 0 0 0 460.9375 368.75" fill="#d4d4d4"/><path d="M 516.25 295 A 73.75 73.75 0 0 1 590 368.75 L 571.5625 368.75 A 55.3125 55.3125 0 0 0 516.25 313.4375" fill="#f4f4f4"/><path d="M 442.5 368.75 A 73.75 73.75 0 0 0 516.25 442.5 L 516.25 424.0625 A 55.3125 55.3125 0 0 1 460.9375 368.75" fill="#ededed"/><path d="M 516.25 442.5 A 73.75 73.75 0 0 0 590 368.75 L 571.5625 368.75 A 55.3125 55.3125 0 0 1 516.25 424.0625" fill="#e7e7e7"/><rect x="590" y="295" width="147.5" height="147.5" fill="#f7f7f7"/><path d="M 0 442.5 A 147.5 147.5 0 0 1 147.5 590 L 0 590" fill="#e3e3e3"/><polygon points="147.5,442.5 295,590 147.5,590" fill="#f3f3f3"/><rect x="295" y="442.5" width="147.5" height="147.5" fill="#ffffff"/><path d="M 295 516.25 A 73.75 73.75 0 0 0 368.75 442.5 L 295 442.5" fill="#f2f2f2"/><path d="M 368.75 442.5 A 73.75 73.75 0 0 0 442.5 516.25 L 442.5 442.5" fill="#e1e1e1"/><path d="M 295 516.25 A 73.75 73.75 0 0 1 368.75 590 L 295 590" fill="#fbfbfb"/><path d="M 368.75 590 A 73.75 73.75 0 0 1  442.5 516.25 L 442.5 590" fill="#f3f3f3"/><rect x="442.5" y="442.5" width="147.5" height="147.5" fill="#ffffff"/><path d="M 442.5 516.25 A 73.75 73.75 0 0 1 516.25 442.5 L 516.25 460.9375 A 55.3125 55.3125 0 0 0 460.9375 516.25" fill="#e7e7e7"/><path d="M 516.25 442.5 A 73.75 73.75 0 0 1 590 516.25 L 571.5625 516.25 A 55.3125 55.3125 0 0 0 516.25 460.9375" fill="#fbfbfb"/><path d="M 442.5 516.25 A 73.75 73.75 0 0 0 516.25 590 L 516.25 571.5625 A 55.3125 55.3125 0 0 1 460.9375 516.25" fill="#fdfdfd"/><path d="M 516.25 590 A 73.75 73.75 0 0 0 590 516.25 L 571.5625 516.25 A 55.3125 55.3125 0 0 1 516.25 571.5625" fill="#dedede"/><rect x="590" y="442.5" width="147.5" height="147.5" fill="#ffffff"/><polygon points="590,442.5 663.75,442.5 590,516.25" fill="#e7e7e7"/><polygon points="737.5,442.5 737.5,516.25 663.75,516.25" fill="#e9e9e9"/><polygon points="590,516.25 663.75,516.25 663.75,590" fill="#f2f2f2"/><polygon points="663.75,516.25 737.5,590 663.75,590" fill="#f9f9f9"/></g></svg>