<?xml version="1.0" standalone="no"?><svg xmlns:xlink="http://www.w3.org/1999/xlink" xmlns="http://www.w3.org/2000/svg" viewBox="0 0 3000 4714.3035498772315" preserveAspectRatio="xMaxYMax slice"><g transform="scale(7.990344999791918)"><rect x="0" y="0" width="375.45454545454544" height="590" fill="#e8e8e8"/><rect x="0" y="0" width="53.63636363636363" height="53.63636363636363" fill="#e8e8e8"/><rect x="0" y="0" width="26.82" height="26.82" fill="#e4e4e4"/><path d="M 0 0 A 26.82 26.82 0 0 1 26.82 26.82 L 0 26.82" fill="#e5e5e5"/><rect x="26.82" y="0" width="26.82" height="26.82" fill="#e5e5e5"/><path d="M 26.82 0 A 26.82 26.82 0 0 1  53.64 26.82 L 26.82 0 A 26.82 26.82 0 0 0 53.64 26.82" fill="#efefef"/><rect x="0" y="26.82" width="26.82" height="26.82" fill="#efefef"/><path d="M 0 26.82 A 26.82 26.82 0 0 1 26.82 53.64 L 0 53.64" fill="#e9e9e9"/><rect x="26.82" y="26.82" width="26.82" height="26.82" fill="#e3e3e3"/><path d="M 26.82 53.64 A 26.82 26.82 0 0 1  53.64 26.82 L 26.82 53.64 A 26.82 26.82 0 0 0 53.64 26.82" fill="#e5e5e5"/><rect x="53.64" y="0" width="53.64" height="53.64" fill="#e9e9e9"/><path d="M 53.64 53.64 A 53.64 53.64 0 0 1  107.28 0 L 107.28 53.64" fill="#f3f3f3"/><rect x="107.27272727272727" y="0" width="53.63636363636363" height="53.63636363636363" fill="#e8e8e8"/><rect x="107.27" y="0" width="26.82" height="26.82" fill="#e4e4e4"/><path d="M 107.27 0 A 26.82 26.82 0 0 1  134.09 26.82 L 107.27 0 A 26.82 26.82 0 0 0 134.09 26.82" fill="#ececec"/><rect x="134.09" y="0" width="26.82" height="26.82" fill="#ececec"/><path d="M 134.09 0 A 26.82 26.82 0 0 1  160.91 26.82 L 134.09 0 A 26.82 26.82 0 0 0 160.91 26.82" fill="#f1f1f1"/><rect x="107.27" y="26.82" width="26.82" height="26.82" fill="#ececec"/><path d="M 107.27 53.64 A 26.82 26.82 0 0 1  134.09 26.82 L 107.27 53.64 A 26.82 26.82 0 0 0 134.09 26.82" fill="#e9e9e9"/><rect x="134.09" y="26.82" width="26.82" height="26.82" fill="#e5e5e5"/><path d="M 134.09 26.82 A 26.82 26.82 0 0 1 160.91 53.64 L 134.09 53.64" fill="#e5e5e5"/><rect x="160.91" y="0" width="53.64" height="53.64" fill="#f4f4f4"/><path d="M 160.91 53.64 A 53.64 53.64 0 0 1  214.55 0 L 160.91 53.64 A 53.64 53.64 0 0 0 214.55 0" fill="#ececec"/><rect x="214.55" y="0" width="53.64" height="53.64" fill="#e9e9e9"/><path d="M 214.55 0 A 53.64 53.64 0 0 0 268.19 53.64 L 268.19 0" fill="#f5f5f5"/><rect x="268.18" y="0" width="53.64" height="53.64" fill="#e5e5e5"/><path d="M 268.18 0 A 53.64 53.64 0 0 1 321.82 53.64 L 268.18 53.64" fill="#e8e8e8"/><rect x="321.8181818181818" y="0" width="53.63636363636363" height="53.63636363636363" fill="#e8e8e8"/><rect x="321.82" y="0" width="26.82" height="26.82" fill="#e6e6e6"/><path d="M 321.82 26.82 A 26.82 26.82 0 0 0 348.64 0 L 321.82 0" fill="#f2f2f2"/><rect x="348.64" y="0" width="26.82" height="26.82" fill="#e5e5e5"/><path d="M 348.64 26.82 A 26.82 26.82 0 0 0 375.46 0 L 348.64 0" fill="#e6e6e6"/><rect x="321.82" y="26.82" width="26.82" height="26.82" fill="#e6e6e6"/><path d="M 321.82 53.64 A 26.82 26.82 0 0 1  348.64 26.82 L 321.82 53.64 A 26.82 26.82 0 0 0 348.64 26.82" fill="#e9e9e9"/><rect x="348.64" y="26.82" width="26.82" height="26.82" fill="#f0f0f0"/><path d="M 348.64 53.64 A 26.82 26.82 0 0 1  375.46 26.82 L 348.64 53.64 A 26.82 26.82 0 0 0 375.46 26.82" fill="#f3f3f3"/><rect x="0" y="53.64" width="53.64" height="53.64" fill="#f1f1f1"/><path d="M 0 53.64 A 53.64 53.64 0 0 0 53.64 107.28 L 53.64 53.64" fill="#e6e6e6"/><rect x="53.63636363636363" y="53.63636363636363" width="53.63636363636363" height="53.63636363636363" fill="#e8e8e8"/><rect x="53.64" y="53.64" width="26.82" height="26.82" fill="#e8e8e8"/><path d="M 53.64 53.64 A 26.82 26.82 0 0 1 80.46000000000001 80.46000000000001 L 53.64 80.46000000000001" fill="#f3f3f3"/><rect x="80.45" y="53.64" width="26.82" height="26.82" fill="#eeeeee"/><path d="M 80.45 80.46000000000001 A 26.82 26.82 0 0 1  107.27000000000001 53.64 L 107.27000000000001 80.46000000000001" fill="#e4e4e4"/><rect x="53.64" y="80.45" width="26.82" height="26.82" fill="#e7e7e7"/><path d="M 53.64 107.27000000000001 A 26.82 26.82 0 0 1  80.46000000000001 80.45 L 53.64 107.27000000000001 A 26.82 26.82 0 0 0 80.46000000000001 80.45" fill="#e7e7e7"/><rect x="80.45" y="80.45" width="26.82" height="26.82" fill="#ededed"/><path d="M 80.45 80.45 A 26.82 26.82 0 0 1 107.27000000000001 107.27000000000001 L 80.45 107.27000000000001" fill="#e5e5e5"/><rect x="107.27272727272727" y="53.63636363636363" width="53.63636363636363" height="53.63636363636363" fill="#e8e8e8"/><rect x="107.27" y="53.64" width="26.82" height="26.82" fill="#ececec"/><path d="M 107.27 80.46000000000001 A 26.82 26.82 0 0 1  134.09 53.64 L 107.27 80.46000000000001 A 26.82 26.82 0 0 0 134.09 53.64" fill="#e7e7e7"/><rect x="134.09" y="53.64" width="26.82" height="26.82" fill="#e6e6e6"/><path d="M 134.09 80.46000000000001 A 26.82 26.82 0 0 1  160.91 53.64 L 160.91 80.46000000000001" fill="#eaeaea"/><rect x="107.27" y="80.45" width="26.82" height="26.82" fill="#f3f3f3"/><path d="M 107.27 80.45 A 26.82 26.82 0 0 1 134.09 107.27000000000001 L 107.27 107.27000000000001" fill="#f3f3f3"/><rect x="134.09" y="80.45" width="26.82" height="26.82" fill="#e9e9e9"/><path d="M 134.09 80.45 A 26.82 26.82 0 0 0 160.91 107.27000000000001 L 160.91 80.45" fill="#e4e4e4"/><rect x="160.9090909090909" y="53.63636363636363" width="53.63636363636363" height="53.63636363636363" fill="#e8e8e8"/><rect x="160.91" y="53.64" width="26.82" height="26.82" fill="#f3f3f3"/><path d="M 160.91 80.46000000000001 A 26.82 26.82 0 0 1  187.73 53.64 L 160.91 80.46000000000001 A 26.82 26.82 0 0 0 187.73 53.64" fill="#f3f3f3"/><rect x="187.73" y="53.64" width="26.82" height="26.82" fill="#e7e7e7"/><path d="M 187.73 80.46000000000001 A 26.82 26.82 0 0 0 214.54999999999998 53.64 L 187.73 53.64" fill="#e5e5e5"/><rect x="160.91" y="80.45" width="26.82" height="26.82" fill="#f4f4f4"/><path d="M 160.91 80.45 A 26.82 26.82 0 0 1  187.73 107.27000000000001 L 160.91 80.45 A 26.82 26.82 0 0 0 187.73 107.27000000000001" fill="#e8e8e8"/><rect x="187.73" y="80.45" width="26.82" height="26.82" fill="#f0f0f0"/><path d="M 187.73 107.27000000000001 A 26.82 26.82 0 0 0 214.54999999999998 80.45 L 187.73 80.45" fill="#e3e3e3"/><rect x="214.54545454545453" y="53.63636363636363" width="53.63636363636363" height="53.63636363636363" fill="#e8e8e8"/><rect x="214.55" y="53.64" width="26.82" height="26.82" fill="#ececec"/><path d="M 214.55 80.46000000000001 A 26.82 26.82 0 0 1  241.37 53.64 L 214.55 80.46000000000001 A 26.82 26.82 0 0 0 241.37 53.64" fill="#eeeeee"/><rect x="241.36" y="53.64" width="26.82" height="26.82" fill="#e9e9e9"/><path d="M 241.36 80.46000000000001 A 26.82 26.82 0 0 1  268.18 53.64 L 241.36 80.46000000000001 A 26.82 26.82 0 0 0 268.18 53.64" fill="#eaeaea"/><rect x="214.55" y="80.45" width="26.82" height="26.82" fill="#f1f1f1"/><path d="M 214.55 107.27000000000001 A 26.82 26.82 0 0 1  241.37 80.45 L 241.37 107.27000000000001" fill="#e6e6e6"/><rect x="241.36" y="80.45" width="26.82" height="26.82" fill="#f1f1f1"/><path d="M 241.36 107.27000000000001 A 26.82 26.82 0 0 1  268.18 80.45 L 241.36 107.27000000000001 A 26.82 26.82 0 0 0 268.18 80.45" fill="#e4e4e4"/><rect x="268.18" y="53.64" width="53.64" height="53.64" fill="#e7e7e7"/><path d="M 268.18 107.28 A 53.64 53.64 0 0 1  321.82 53.64 L 268.18 107.28 A 53.64 53.64 0 0 0 321.82 53.64" fill="#f2f2f2"/><rect x="321.8181818181818" y="53.63636363636363" width="53.63636363636363" height="53.63636363636363" fill="#e8e8e8"/><rect x="321.82" y="53.64" width="26.82" height="26.82" fill="#ededed"/><path d="M 321.82 53.64 A 26.82 26.82 0 0 1  348.64 80.46000000000001 L 321.82 53.64 A 26.82 26.82 0 0 0 348.64 80.46000000000001" fill="#e5e5e5"/><rect x="348.64" y="53.64" width="26.82" height="26.82" fill="#e8e8e8"/><path d="M 348.64 80.46000000000001 A 26.82 26.82 0 0 1  375.46 53.64 L 375.46 80.46000000000001" fill="#e9e9e9"/><rect x="321.82" y="80.45" width="26.82" height="26.82" fill="#eaeaea"/><path d="M 321.82 107.27000000000001 A 26.82 26.82 0 0 0 348.64 80.45 L 321.82 80.45" fill="#e4e4e4"/><rect x="348.64" y="80.45" width="26.82" height="26.82" fill="#f2f2f2"/><path d="M 348.64 80.45 A 26.82 26.82 0 0 1 375.46 107.27000000000001 L 348.64 107.27000000000001" fill="#f2f2f2"/><rect x="0" y="107.27" width="53.64" height="53.64" fill="#e9e9e9"/><path d="M 0 160.91 A 53.64 53.64 0 0 1  53.64 107.27 L 0 160.91 A 53.64 53.64 0 0 0 53.64 107.27" fill="#e7e7e7"/><rect x="53.64" y="107.27" width="53.64" height="53.64" fill="#e4e4e4"/><path d="M 53.64 107.27 A 53.64 53.64 0 0 1  107.28 160.91 L 53.64 107.27 A 53.64 53.64 0 0 0 107.28 160.91" fill="#eaeaea"/><rect x="107.27272727272727" y="107.27272727272727" width="53.63636363636363" height="53.63636363636363" fill="#e8e8e8"/><rect x="107.27" y="107.27" width="26.82" height="26.82" fill="#e7e7e7"/><path d="M 107.27 107.27 A 26.82 26.82 0 0 0 134.09 134.09 L 134.09 107.27" fill="#e7e7e7"/><rect x="134.09" y="107.27" width="26.82" height="26.82" fill="#e7e7e7"/><path d="M 134.09 134.09 A 26.82 26.82 0 0 1  160.91 107.27 L 134.09 134.09 A 26.82 26.82 0 0 0 160.91 107.27" fill="#f5f5f5"/><rect x="107.27" y="134.09" width="26.82" height="26.82" fill="#e9e9e9"/><path d="M 107.27 160.91 A 26.82 26.82 0 0 0 134.09 134.09 L 107.27 134.09" fill="#e7e7e7"/><rect x="134.09" y="134.09" width="26.82" height="26.82" fill="#e6e6e6"/><path d="M 134.09 160.91 A 26.82 26.82 0 0 1  160.91 134.09 L 160.91 160.91" fill="#e8e8e8"/><rect x="160.9090909090909" y="107.27272727272727" width="53.63636363636363" height="53.63636363636363" fill="#e8e8e8"/><rect x="160.91" y="107.27" width="26.82" height="26.82" fill="#f1f1f1"/><path d="M 160.91 107.27 A 26.82 26.82 0 0 1  187.73 134.09 L 160.91 107.27 A 26.82 26.82 0 0 0 187.73 134.09" fill="#f0f0f0"/><rect x="187.73" y="107.27" width="26.82" height="26.82" fill="#e4e4e4"/><path d="M 187.73 107.27 A 26.82 26.82 0 0 0 214.54999999999998 134.09 L 214.54999999999998 107.27" fill="#ececec"/><rect x="160.91" y="134.09" width="26.82" height="26.82" fill="#ebebeb"/><path d="M 160.91 134.09 A 26.82 26.82 0 0 1  187.73 160.91 L 160.91 134.09 A 26.82 26.82 0 0 0 187.73 160.91" fill="#e6e6e6"/><rect x="187.73" y="134.09" width="26.82" height="26.82" fill="#eaeaea"/><path d="M 187.73 160.91 A 26.82 26.82 0 0 0 214.54999999999998 134.09 L 187.73 134.09" fill="#e7e7e7"/><rect x="214.55" y="107.27" width="53.64" height="53.64" fill="#ebebeb"/><path d="M 214.55 160.91 A 53.64 53.64 0 0 1  268.19 107.27 L 214.55 160.91 A 53.64 53.64 0 0 0 268.19 107.27" fill="#f3f3f3"/><rect x="268.1818181818182" y="107.27272727272727" width="53.63636363636363" height="53.63636363636363" fill="#e8e8e8"/><rect x="268.18" y="107.27" width="26.82" height="26.82" fill="#e7e7e7"/><path d="M 268.18 107.27 A 26.82 26.82 0 0 1  295 134.09 L 268.18 107.27 A 26.82 26.82 0 0 0 295 134.09" fill="#f1f1f1"/><rect x="295" y="107.27" width="26.82" height="26.82" fill="#e7e7e7"/><path d="M 295 107.27 A 26.82 26.82 0 0 1 321.82 134.09 L 295 134.09" fill="#e7e7e7"/><rect x="268.18" y="134.09" width="26.82" height="26.82" fill="#e7e7e7"/><path d="M 268.18 160.91 A 26.82 26.82 0 0 1  295 134.09 L 268.18 160.91 A 26.82 26.82 0 0 0 295 134.09" fill="#e4e4e4"/><rect x="295" y="134.09" width="26.82" height="26.82" fill="#e6e6e6"/><path d="M 295 160.91 A 26.82 26.82 0 0 0 321.82 134.09 L 295 134.09" fill="#e6e6e6"/><rect x="321.8181818181818" y="107.27272727272727" width="53.63636363636363" height="53.63636363636363" fill="#e8e8e8"/><rect x="321.82" y="107.27" width="26.82" height="26.82" fill="#e4e4e4"/><path d="M 321.82 107.27 A 26.82 26.82 0 0 0 348.64 134.09 L 348.64 107.27" fill="#e5e5e5"/><rect x="348.64" y="107.27" width="26.82" height="26.82" fill="#efefef"/><path d="M 348.64 107.27 A 26.82 26.82 0 0 1 375.46 134.09 L 348.64 134.09" fill="#f2f2f2"/><rect x="321.82" y="134.09" width="26.82" height="26.82" fill="#efefef"/><path d="M 321.82 134.09 A 26.82 26.82 0 0 0 348.64 160.91 L 348.64 134.09" fill="#e4e4e4"/><rect x="348.64" y="134.09" width="26.82" height="26.82" fill="#e4e4e4"/><path d="M 348.64 134.09 A 26.82 26.82 0 0 0 375.46 160.91 L 375.46 134.09" fill="#e4e4e4"/><rect x="0" y="160.91" width="53.64" height="53.64" fill="#eaeaea"/><path d="M 0 214.55 A 53.64 53.64 0 0 1  53.64 160.91 L 53.64 214.55" fill="#f5f5f5"/><rect x="53.64" y="160.91" width="53.64" height="53.64" fill="#f3f3f3"/><path d="M 53.64 160.91 A 53.64 53.64 0 0 1  107.28 214.55 L 53.64 160.91 A 53.64 53.64 0 0 0 107.28 214.55" fill="#e5e5e5"/><rect x="107.27272727272727" y="160.9090909090909" width="53.63636363636363" height="53.63636363636363" fill="#e8e8e8"/><rect x="107.27" y="160.91" width="26.82" height="26.82" fill="#e6e6e6"/><path d="M 107.27 187.73 A 26.82 26.82 0 0 1  134.09 160.91 L 134.09 187.73" fill="#f1f1f1"/><rect x="134.09" y="160.91" width="26.82" height="26.82" fill="#e6e6e6"/><path d="M 134.09 187.73 A 26.82 26.82 0 0 1  160.91 160.91 L 134.09 187.73 A 26.82 26.82 0 0 0 160.91 160.91" fill="#f2f2f2"/><rect x="107.27" y="187.73" width="26.82" height="26.82" fill="#e7e7e7"/><path d="M 107.27 187.73 A 26.82 26.82 0 0 1  134.09 214.54999999999998 L 107.27 187.73 A 26.82 26.82 0 0 0 134.09 214.54999999999998" fill="#f4f4f4"/><rect x="134.09" y="187.73" width="26.82" height="26.82" fill="#f0f0f0"/><path d="M 134.09 214.54999999999998 A 26.82 26.82 0 0 1  160.91 187.73 L 160.91 214.54999999999998" fill="#e4e4e4"/><rect x="160.91" y="160.91" width="53.64" height="53.64" fill="#f4f4f4"/><path d="M 160.91 214.55 A 53.64 53.64 0 0 1  214.55 160.91 L 160.91 214.55 A 53.64 53.64 0 0 0 214.55 160.91" fill="#f3f3f3"/><rect x="214.55" y="160.91" width="53.64" height="53.64" fill="#f3f3f3"/><path d="M 214.55 160.91 A 53.64 53.64 0 0 1  268.19 214.55 L 214.55 160.91 A 53.64 53.64 0 0 0 268.19 214.55" fill="#e6e6e6"/><rect x="268.1818181818182" y="160.9090909090909" width="53.63636363636363" height="53.63636363636363" fill="#e8e8e8"/><rect x="268.18" y="160.91" width="26.82" height="26.82" fill="#e7e7e7"/><path d="M 268.18 160.91 A 26.82 26.82 0 0 1  295 187.73 L 268.18 160.91 A 26.82 26.82 0 0 0 295 187.73" fill="#eeeeee"/><rect x="295" y="160.91" width="26.82" height="26.82" fill="#e5e5e5"/><path d="M 295 187.73 A 26.82 26.82 0 0 0 321.82 160.91 L 295 160.91" fill="#f4f4f4"/><rect x="268.18" y="187.73" width="26.82" height="26.82" fill="#e6e6e6"/><path d="M 268.18 214.54999999999998 A 26.82 26.82 0 0 1  295 187.73 L 295 214.54999999999998" fill="#e3e3e3"/><rect x="295" y="187.73" width="26.82" height="26.82" fill="#e3e3e3"/><path d="M 295 214.54999999999998 A 26.82 26.82 0 0 1  321.82 187.73 L 321.82 214.54999999999998" fill="#e6e6e6"/><rect x="321.82" y="160.91" width="53.64" height="53.64" fill="#e8e8e8"/><path d="M 321.82 160.91 A 53.64 53.64 0 0 1 375.46 214.55 L 321.82 214.55" fill="#f4f4f4"/><rect x="0" y="214.54545454545453" width="53.63636363636363" height="53.63636363636363" fill="#e8e8e8"/><rect x="0" y="214.55" width="26.82" height="26.82" fill="#eeeeee"/><path d="M 0 214.55 A 26.82 26.82 0 0 1  26.82 241.37 L 0 214.55 A 26.82 26.82 0 0 0 26.82 241.37" fill="#f4f4f4"/><rect x="26.82" y="214.55" width="26.82" height="26.82" fill="#efefef"/><path d="M 26.82 214.55 A 26.82 26.82 0 0 1 53.64 241.37 L 26.82 241.37" fill="#f1f1f1"/><rect x="0" y="241.36" width="26.82" height="26.82" fill="#e5e5e5"/><path d="M 0 241.36 A 26.82 26.82 0 0 1  26.82 268.18 L 0 241.36 A 26.82 26.82 0 0 0 26.82 268.18" fill="#e5e5e5"/><rect x="26.82" y="241.36" width="26.82" height="26.82" fill="#e3e3e3"/><path d="M 26.82 241.36 A 26.82 26.82 0 0 1 53.64 268.18 L 26.82 268.18" fill="#e6e6e6"/><rect x="53.64" y="214.55" width="53.64" height="53.64" fill="#e7e7e7"/><path d="M 53.64 268.19 A 53.64 53.64 0 0 0 107.28 214.55 L 53.64 214.55" fill="#f1f1f1"/><rect x="107.27" y="214.55" width="53.64" height="53.64" fill="#f3f3f3"/><path d="M 107.27 268.19 A 53.64 53.64 0 0 1  160.91 214.55 L 160.91 268.19" fill="#e6e6e6"/><rect x="160.9090909090909" y="214.54545454545453" width="53.63636363636363" height="53.63636363636363" fill="#e8e8e8"/><rect x="160.91" y="214.55" width="26.82" height="26.82" fill="#e7e7e7"/><path d="M 160.91 241.37 A 26.82 26.82 0 0 0 187.73 214.55 L 160.91 214.55" fill="#e7e7e7"/><rect x="187.73" y="214.55" width="26.82" height="26.82" fill="#e7e7e7"/><path d="M 187.73 241.37 A 26.82 26.82 0 0 0 214.54999999999998 214.55 L 187.73 214.55" fill="#e4e4e4"/><rect x="160.91" y="241.36" width="26.82" height="26.82" fill="#eeeeee"/><path d="M 160.91 268.18 A 26.82 26.82 0 0 1  187.73 241.36 L 160.91 268.18 A 26.82 26.82 0 0 0 187.73 241.36" fill="#ebebeb"/><rect x="187.73" y="241.36" width="26.82" height="26.82" fill="#e7e7e7"/><path d="M 187.73 268.18 A 26.82 26.82 0 0 1  214.54999999999998 241.36 L 187.73 268.18 A 26.82 26.82 0 0 0 214.54999999999998 241.36" fill="#e8e8e8"/><rect x="214.54545454545453" y="214.54545454545453" width="53.63636363636363" height="53.63636363636363" fill="#e8e8e8"/><rect x="214.55" y="214.55" width="26.82" height="26.82" fill="#f2f2f2"/><path d="M 214.55 214.55 A 26.82 26.82 0 0 1  241.37 241.37 L 214.55 214.55 A 26.82 26.82 0 0 0 241.37 241.37" fill="#e4e4e4"/><rect x="241.36" y="214.55" width="26.82" height="26.82" fill="#e8e8e8"/><path d="M 241.36 214.55 A 26.82 26.82 0 0 0 268.18 241.37 L 268.18 214.55" fill="#e3e3e3"/><rect x="214.55" y="241.36" width="26.82" height="26.82" fill="#e6e6e6"/><path d="M 214.55 268.18 A 26.82 26.82 0 0 0 241.37 241.36 L 214.55 241.36" fill="#e3e3e3"/><rect x="241.36" y="241.36" width="26.82" height="26.82" fill="#e8e8e8"/><path d="M 241.36 268.18 A 26.82 26.82 0 0 1  268.18 241.36 L 268.18 268.18" fill="#e4e4e4"/><rect x="268.18" y="214.55" width="53.64" height="53.64" fill="#ebebeb"/><path d="M 268.18 214.55 A 53.64 53.64 0 0 1 321.82 268.19 L 268.18 268.19" fill="#f3f3f3"/><rect x="321.82" y="214.55" width="53.64" height="53.64" fill="#ededed"/><path d="M 321.82 214.55 A 53.64 53.64 0 0 0 375.46 268.19 L 375.46 214.55" fill="#e5e5e5"/><rect x="0" y="268.18" width="53.64" height="53.64" fill="#f4f4f4"/><path d="M 0 321.82 A 53.64 53.64 0 0 1  53.64 268.18 L 53.64 321.82" fill="#efefef"/><rect x="53.63636363636363" y="268.1818181818182" width="53.63636363636363" height="53.63636363636363" fill="#e8e8e8"/><rect x="53.64" y="268.18" width="26.82" height="26.82" fill="#e9e9e9"/><path d="M 53.64 295 A 26.82 26.82 0 0 1  80.46000000000001 268.18 L 80.46000000000001 295" fill="#ececec"/><rect x="80.45" y="268.18" width="26.82" height="26.82" fill="#ebebeb"/><path d="M 80.45 268.18 A 26.82 26.82 0 0 1 107.27000000000001 295 L 80.45 295" fill="#f2f2f2"/><rect x="53.64" y="295" width="26.82" height="26.82" fill="#f5f5f5"/><path d="M 53.64 321.82 A 26.82 26.82 0 0 0 80.46000000000001 295 L 53.64 295" fill="#e5e5e5"/><rect x="80.45" y="295" width="26.82" height="26.82" fill="#e7e7e7"/><path d="M 80.45 321.82 A 26.82 26.82 0 0 0 107.27000000000001 295 L 80.45 295" fill="#ededed"/><rect x="107.27272727272727" y="268.1818181818182" width="53.63636363636363" height="53.63636363636363" fill="#e8e8e8"/><rect x="107.27" y="268.18" width="26.82" height="26.82" fill="#e6e6e6"/><path d="M 107.27 268.18 A 26.82 26.82 0 0 1 134.09 295 L 107.27 295" fill="#e5e5e5"/><rect x="134.09" y="268.18" width="26.82" height="26.82" fill="#ebebeb"/><path d="M 134.09 295 A 26.82 26.82 0 0 1  160.91 268.18 L 134.09 295 A 26.82 26.82 0 0 0 160.91 268.18" fill="#e7e7e7"/><rect x="107.27" y="295" width="26.82" height="26.82" fill="#f0f0f0"/><path d="M 107.27 321.82 A 26.82 26.82 0 0 0 134.09 295 L 107.27 295" fill="#f3f3f3"/><rect x="134.09" y="295" width="26.82" height="26.82" fill="#e7e7e7"/><path d="M 134.09 321.82 A 26.82 26.82 0 0 0 160.91 295 L 134.09 295" fill="#ececec"/><rect x="160.91" y="268.18" width="53.64" height="53.64" fill="#e4e4e4"/><path d="M 160.91 321.82 A 53.64 53.64 0 0 0 214.55 268.18 L 160.91 268.18" fill="#efefef"/><rect x="214.55" y="268.18" width="53.64" height="53.64" fill="#f4f4f4"/><path d="M 214.55 321.82 A 53.64 53.64 0 0 1  268.19 268.18 L 214.55 321.82 A 53.64 53.64 0 0 0 268.19 268.18" fill="#e9e9e9"/><rect x="268.1818181818182" y="268.1818181818182" width="53.63636363636363" height="53.63636363636363" fill="#e8e8e8"/><rect x="268.18" y="268.18" width="26.82" height="26.82" fill="#eeeeee"/><path d="M 268.18 295 A 26.82 26.82 0 0 0 295 268.18 L 268.18 268.18" fill="#f5f5f5"/><rect x="295" y="268.18" width="26.82" height="26.82" fill="#e7e7e7"/><path d="M 295 268.18 A 26.82 26.82 0 0 1  321.82 295 L 295 268.18 A 26.82 26.82 0 0 0 321.82 295" fill="#e4e4e4"/><rect x="268.18" y="295" width="26.82" height="26.82" fill="#ececec"/><path d="M 268.18 295 A 26.82 26.82 0 0 1  295 321.82 L 268.18 295 A 26.82 26.82 0 0 0 295 321.82" fill="#f4f4f4"/><rect x="295" y="295" width="26.82" height="26.82" fill="#e4e4e4"/><path d="M 295 321.82 A 26.82 26.82 0 0 1  321.82 295 L 321.82 321.82" fill="#e4e4e4"/><rect x="321.82" y="268.18" width="53.64" height="53.64" fill="#e4e4e4"/><path d="M 321.82 268.18 A 53.64 53.64 0 0 1  375.46 321.82 L 321.82 268.18 A 53.64 53.64 0 0 0 375.46 321.82" fill="#eaeaea"/><rect x="0" y="321.82" width="53.64" height="53.64" fill="#f3f3f3"/><path d="M 0 375.46 A 53.64 53.64 0 0 1  53.64 321.82 L 0 375.46 A 53.64 53.64 0 0 0 53.64 321.82" fill="#f3f3f3"/><rect x="53.63636363636363" y="321.8181818181818" width="53.63636363636363" height="53.63636363636363" fill="#e8e8e8"/><rect x="53.64" y="321.82" width="26.82" height="26.82" fill="#e3e3e3"/><path d="M 53.64 321.82 A 26.82 26.82 0 0 1  80.46000000000001 348.64 L 53.64 321.82 A 26.82 26.82 0 0 0 80.46000000000001 348.64" fill="#e5e5e5"/><rect x="80.45" y="321.82" width="26.82" height="26.82" fill="#ececec"/><path d="M 80.45 321.82 A 26.82 26.82 0 0 0 107.27000000000001 348.64 L 107.27000000000001 321.82" fill="#e5e5e5"/><rect x="53.64" y="348.64" width="26.82" height="26.82" fill="#e4e4e4"/><path d="M 53.64 348.64 A 26.82 26.82 0 0 1  80.46000000000001 375.46 L 53.64 348.64 A 26.82 26.82 0 0 0 80.46000000000001 375.46" fill="#e9e9e9"/><rect x="80.45" y="348.64" width="26.82" height="26.82" fill="#e9e9e9"/><path d="M 80.45 375.46 A 26.82 26.82 0 0 1  107.27000000000001 348.64 L 107.27000000000001 375.46" fill="#f2f2f2"/><rect x="107.27272727272727" y="321.8181818181818" width="53.63636363636363" height="53.63636363636363" fill="#e8e8e8"/><rect x="107.27" y="321.82" width="26.82" height="26.82" fill="#e6e6e6"/><path d="M 107.27 321.82 A 26.82 26.82 0 0 1  134.09 348.64 L 107.27 321.82 A 26.82 26.82 0 0 0 134.09 348.64" fill="#f0f0f0"/><rect x="134.09" y="321.82" width="26.82" height="26.82" fill="#f2f2f2"/><path d="M 134.09 348.64 A 26.82 26.82 0 0 1  160.91 321.82 L 134.09 348.64 A 26.82 26.82 0 0 0 160.91 321.82" fill="#f0f0f0"/><rect x="107.27" y="348.64" width="26.82" height="26.82" fill="#e6e6e6"/><path d="M 107.27 375.46 A 26.82 26.82 0 0 0 134.09 348.64 L 107.27 348.64" fill="#e4e4e4"/><rect x="134.09" y="348.64" width="26.82" height="26.82" fill="#e6e6e6"/><path d="M 134.09 348.64 A 26.82 26.82 0 0 1  160.91 375.46 L 134.09 348.64 A 26.82 26.82 0 0 0 160.91 375.46" fill="#eaeaea"/><rect x="160.9090909090909" y="321.8181818181818" width="53.63636363636363" height="53.63636363636363" fill="#e8e8e8"/><rect x="160.91" y="321.82" width="26.82" height="26.82" fill="#e8e8e8"/><path d="M 160.91 321.82 A 26.82 26.82 0 0 1 187.73 348.64 L 160.91 348.64" fill="#f3f3f3"/><rect x="187.73" y="321.82" width="26.82" height="26.82" fill="#f5f5f5"/><path d="M 187.73 348.64 A 26.82 26.82 0 0 1  214.54999999999998 321.82 L 187.73 348.64 A 26.82 26.82 0 0 0 214.54999999999998 321.82" fill="#e5e5e5"/><rect x="160.91" y="348.64" width="26.82" height="26.82" fill="#e4e4e4"/><path d="M 160.91 348.64 A 26.82 26.82 0 0 0 187.73 375.46 L 187.73 348.64" fill="#eeeeee"/><rect x="187.73" y="348.64" width="26.82" height="26.82" fill="#e6e6e6"/><path d="M 187.73 348.64 A 26.82 26.82 0 0 1  214.54999999999998 375.46 L 187.73 348.64 A 26.82 26.82 0 0 0 214.54999999999998 375.46" fill="#f2f2f2"/><rect x="214.55" y="321.82" width="53.64" height="53.64" fill="#f0f0f0"/><path d="M 214.55 321.82 A 53.64 53.64 0 0 1  268.19 375.46 L 214.55 321.82 A 53.64 53.64 0 0 0 268.19 375.46" fill="#e8e8e8"/><rect x="268.1818181818182" y="321.8181818181818" width="53.63636363636363" height="53.63636363636363" fill="#e8e8e8"/><rect x="268.18" y="321.82" width="26.82" height="26.82" fill="#eeeeee"/><path d="M 268.18 321.82 A 26.82 26.82 0 0 1  295 348.64 L 268.18 321.82 A 26.82 26.82 0 0 0 295 348.64" fill="#e9e9e9"/><rect x="295" y="321.82" width="26.82" height="26.82" fill="#e5e5e5"/><path d="M 295 348.64 A 26.82 26.82 0 0 0 321.82 321.82 L 295 321.82" fill="#f2f2f2"/><rect x="268.18" y="348.64" width="26.82" height="26.82" fill="#e7e7e7"/><path d="M 268.18 348.64 A 26.82 26.82 0 0 1 295 375.46 L 268.18 375.46" fill="#e4e4e4"/><rect x="295" y="348.64" width="26.82" height="26.82" fill="#e5e5e5"/><path d="M 295 375.46 A 26.82 26.82 0 0 1  321.82 348.64 L 321.82 375.46" fill="#e3e3e3"/><rect x="321.8181818181818" y="321.8181818181818" width="53.63636363636363" height="53.63636363636363" fill="#e8e8e8"/><rect x="321.82" y="321.82" width="26.82" height="26.82" fill="#f1f1f1"/><path d="M 321.82 321.82 A 26.82 26.82 0 0 1  348.64 348.64 L 321.82 321.82 A 26.82 26.82 0 0 0 348.64 348.64" fill="#ebebeb"/><rect x="348.64" y="321.82" width="26.82" height="26.82" fill="#e6e6e6"/><path d="M 348.64 348.64 A 26.82 26.82 0 0 0 375.46 321.82 L 348.64 321.82" fill="#f3f3f3"/><rect x="321.82" y="348.64" width="26.82" height="26.82" fill="#e5e5e5"/><path d="M 321.82 375.46 A 26.82 26.82 0 0 1  348.64 348.64 L 348.64 375.46" fill="#eaeaea"/><rect x="348.64" y="348.64" width="26.82" height="26.82" fill="#e7e7e7"/><path d="M 348.64 348.64 A 26.82 26.82 0 0 0 375.46 375.46 L 375.46 348.64" fill="#e5e5e5"/><rect x="0" y="375.45454545454544" width="53.63636363636363" height="53.63636363636363" fill="#e8e8e8"/><rect x="0" y="375.45" width="26.82" height="26.82" fill="#e3e3e3"/><path d="M 0 402.27 A 26.82 26.82 0 0 1  26.82 375.45 L 0 402.27 A 26.82 26.82 0 0 0 26.82 375.45" fill="#e5e5e5"/><rect x="26.82" y="375.45" width="26.82" height="26.82" fill="#eeeeee"/><path d="M 26.82 402.27 A 26.82 26.82 0 0 1  53.64 375.45 L 53.64 402.27" fill="#e8e8e8"/><rect x="0" y="402.27" width="26.82" height="26.82" fill="#e9e9e9"/><path d="M 0 402.27 A 26.82 26.82 0 0 0 26.82 429.09 L 26.82 402.27" fill="#e4e4e4"/><rect x="26.82" y="402.27" width="26.82" height="26.82" fill="#f2f2f2"/><path d="M 26.82 402.27 A 26.82 26.82 0 0 1 53.64 429.09 L 26.82 429.09" fill="#e7e7e7"/><rect x="53.64" y="375.45" width="53.64" height="53.64" fill="#e5e5e5"/><path d="M 53.64 375.45 A 53.64 53.64 0 0 1  107.28 429.09 L 53.64 375.45 A 53.64 53.64 0 0 0 107.28 429.09" fill="#f3f3f3"/><rect x="107.27272727272727" y="375.45454545454544" width="53.63636363636363" height="53.63636363636363" fill="#e8e8e8"/><rect x="107.27" y="375.45" width="26.82" height="26.82" fill="#eaeaea"/><path d="M 107.27 375.45 A 26.82 26.82 0 0 1 134.09 402.27 L 107.27 402.27" fill="#e9e9e9"/><rect x="134.09" y="375.45" width="26.82" height="26.82" fill="#e8e8e8"/><path d="M 134.09 375.45 A 26.82 26.82 0 0 1  160.91 402.27 L 134.09 375.45 A 26.82 26.82 0 0 0 160.91 402.27" fill="#ececec"/><rect x="107.27" y="402.27" width="26.82" height="26.82" fill="#e6e6e6"/><path d="M 107.27 402.27 A 26.82 26.82 0 0 1 134.09 429.09 L 107.27 429.09" fill="#f3f3f3"/><rect x="134.09" y="402.27" width="26.82" height="26.82" fill="#e6e6e6"/><path d="M 134.09 429.09 A 26.82 26.82 0 0 1  160.91 402.27 L 134.09 429.09 A 26.82 26.82 0 0 0 160.91 402.27" fill="#e8e8e8"/><rect x="160.91" y="375.45" width="53.64" height="53.64" fill="#e8e8e8"/><path d="M 160.91 429.09 A 53.64 53.64 0 0 1  214.55 375.45 L 160.91 429.09 A 53.64 53.64 0 0 0 214.55 375.45" fill="#eaeaea"/><rect x="214.55" y="375.45" width="53.64" height="53.64" fill="#f2f2f2"/><path d="M 214.55 375.45 A 53.64 53.64 0 0 0 268.19 429.09 L 268.19 375.45" fill="#e7e7e7"/><rect x="268.18" y="375.45" width="53.64" height="53.64" fill="#eaeaea"/><path d="M 268.18 375.45 A 53.64 53.64 0 0 1  321.82 429.09 L 268.18 375.45 A 53.64 53.64 0 0 0 321.82 429.09" fill="#e6e6e6"/><rect x="321.8181818181818" y="375.45454545454544" width="53.63636363636363" height="53.63636363636363" fill="#e8e8e8"/><rect x="321.82" y="375.45" width="26.82" height="26.82" fill="#e7e7e7"/><path d="M 321.82 402.27 A 26.82 26.82 0 0 1  348.64 375.45 L 348.64 402.27" fill="#e8e8e8"/><rect x="348.64" y="375.45" width="26.82" height="26.82" fill="#e4e4e4"/><path d="M 348.64 402.27 A 26.82 26.82 0 0 0 375.46 375.45 L 348.64 375.45" fill="#e3e3e3"/><rect x="321.82" y="402.27" width="26.82" height="26.82" fill="#ececec"/><path d="M 321.82 402.27 A 26.82 26.82 0 0 1 348.64 429.09 L 321.82 429.09" fill="#f0f0f0"/><rect x="348.64" y="402.27" width="26.82" height="26.82" fill="#f4f4f4"/><path d="M 348.64 402.27 A 26.82 26.82 0 0 0 375.46 429.09 L 375.46 402.27" fill="#f3f3f3"/><rect x="0" y="429.09" width="53.64" height="53.64" fill="#ededed"/><path d="M 0 429.09 A 53.64 53.64 0 0 0 53.64 482.72999999999996 L 53.64 429.09" fill="#f4f4f4"/><rect x="53.64" y="429.09" width="53.64" height="53.64" fill="#f1f1f1"/><path d="M 53.64 482.72999999999996 A 53.64 53.64 0 0 1  107.28 429.09 L 107.28 482.72999999999996" fill="#f0f0f0"/><rect x="107.27" y="429.09" width="53.64" height="53.64" fill="#e4e4e4"/><path d="M 107.27 429.09 A 53.64 53.64 0 0 1 160.91 482.72999999999996 L 107.27 482.72999999999996" fill="#e7e7e7"/><rect x="160.91" y="429.09" width="53.64" height="53.64" fill="#f1f1f1"/><path d="M 160.91 482.72999999999996 A 53.64 53.64 0 0 1  214.55 429.09 L 214.55 482.72999999999996" fill="#e6e6e6"/><rect x="214.54545454545453" y="429.09090909090907" width="53.63636363636363" height="53.63636363636363" fill="#e8e8e8"/><rect x="214.55" y="429.09" width="26.82" height="26.82" fill="#f4f4f4"/><path d="M 214.55 429.09 A 26.82 26.82 0 0 0 241.37 455.90999999999997 L 241.37 429.09" fill="#e6e6e6"/><rect x="241.36" y="429.09" width="26.82" height="26.82" fill="#f0f0f0"/><path d="M 241.36 429.09 A 26.82 26.82 0 0 0 268.18 455.90999999999997 L 268.18 429.09" fill="#e8e8e8"/><rect x="214.55" y="455.91" width="26.82" height="26.82" fill="#f1f1f1"/><path d="M 214.55 455.91 A 26.82 26.82 0 0 0 241.37 482.73 L 241.37 455.91" fill="#e5e5e5"/><rect x="241.36" y="455.91" width="26.82" height="26.82" fill="#e6e6e6"/><path d="M 241.36 482.73 A 26.82 26.82 0 0 1  268.18 455.91 L 241.36 482.73 A 26.82 26.82 0 0 0 268.18 455.91" fill="#f5f5f5"/><rect x="268.18" y="429.09" width="53.64" height="53.64" fill="#e5e5e5"/><path d="M 268.18 429.09 A 53.64 53.64 0 0 0 321.82 482.72999999999996 L 321.82 429.09" fill="#eaeaea"/><rect x="321.8181818181818" y="429.09090909090907" width="53.63636363636363" height="53.63636363636363" fill="#e8e8e8"/><rect x="321.82" y="429.09" width="26.82" height="26.82" fill="#efefef"/><path d="M 321.82 455.90999999999997 A 26.82 26.82 0 0 0 348.64 429.09 L 321.82 429.09" fill="#e6e6e6"/><rect x="348.64" y="429.09" width="26.82" height="26.82" fill="#e6e6e6"/><path d="M 348.64 429.09 A 26.82 26.82 0 0 0 375.46 455.90999999999997 L 375.46 429.09" fill="#eaeaea"/><rect x="321.82" y="455.91" width="26.82" height="26.82" fill="#e7e7e7"/><path d="M 321.82 482.73 A 26.82 26.82 0 0 1  348.64 455.91 L 348.64 482.73" fill="#f1f1f1"/><rect x="348.64" y="455.91" width="26.82" height="26.82" fill="#e4e4e4"/><path d="M 348.64 455.91 A 26.82 26.82 0 0 1  375.46 482.73 L 348.64 455.91 A 26.82 26.82 0 0 0 375.46 482.73" fill="#eaeaea"/><rect x="0" y="482.73" width="53.64" height="53.64" fill="#e7e7e7"/><path d="M 0 536.37 A 53.64 53.64 0 0 1  53.64 482.73 L 53.64 536.37" fill="#e4e4e4"/><rect x="53.63636363636363" y="482.7272727272727" width="53.63636363636363" height="53.63636363636363" fill="#e8e8e8"/><rect x="53.64" y="482.73" width="26.82" height="26.82" fill="#e4e4e4"/><path d="M 53.64 482.73 A 26.82 26.82 0 0 1 80.46000000000001 509.55 L 53.64 509.55" fill="#f4f4f4"/><rect x="80.45" y="482.73" width="26.82" height="26.82" fill="#e8e8e8"/><path d="M 80.45 482.73 A 26.82 26.82 0 0 0 107.27000000000001 509.55 L 107.27000000000001 482.73" fill="#e5e5e5"/><rect x="53.64" y="509.55" width="26.82" height="26.82" fill="#e5e5e5"/><path d="M 53.64 536.37 A 26.82 26.82 0 0 1  80.46000000000001 509.55 L 80.46000000000001 536.37" fill="#e4e4e4"/><rect x="80.45" y="509.55" width="26.82" height="26.82" fill="#e3e3e3"/><path d="M 80.45 509.55 A 26.82 26.82 0 0 0 107.27000000000001 536.37 L 107.27000000000001 509.55" fill="#e9e9e9"/><rect x="107.27" y="482.73" width="53.64" height="53.64" fill="#e3e3e3"/><path d="M 107.27 482.73 A 53.64 53.64 0 0 1  160.91 536.37 L 107.27 482.73 A 53.64 53.64 0 0 0 160.91 536.37" fill="#f4f4f4"/><rect x="160.91" y="482.73" width="53.64" height="53.64" fill="#e7e7e7"/><path d="M 160.91 536.37 A 53.64 53.64 0 0 1  214.55 482.73 L 160.91 536.37 A 53.64 53.64 0 0 0 214.55 482.73" fill="#f4f4f4"/><rect x="214.54545454545453" y="482.7272727272727" width="53.63636363636363" height="53.63636363636363" fill="#e8e8e8"/><rect x="214.55" y="482.73" width="26.82" height="26.82" fill="#ececec"/><path d="M 214.55 509.55 A 26.82 26.82 0 0 0 241.37 482.73 L 214.55 482.73" fill="#e4e4e4"/><rect x="241.36" y="482.73" width="26.82" height="26.82" fill="#ebebeb"/><path d="M 241.36 482.73 A 26.82 26.82 0 0 1  268.18 509.55 L 241.36 482.73 A 26.82 26.82 0 0 0 268.18 509.55" fill="#f2f2f2"/><rect x="214.55" y="509.55" width="26.82" height="26.82" fill="#e7e7e7"/><path d="M 214.55 509.55 A 26.82 26.82 0 0 1  241.37 536.37 L 214.55 509.55 A 26.82 26.82 0 0 0 241.37 536.37" fill="#e8e8e8"/><rect x="241.36" y="509.55" width="26.82" height="26.82" fill="#e8e8e8"/><path d="M 241.36 509.55 A 26.82 26.82 0 0 1 268.18 536.37 L 241.36 536.37" fill="#f4f4f4"/><rect x="268.18" y="482.73" width="53.64" height="53.64" fill="#f4f4f4"/><path d="M 268.18 482.73 A 53.64 53.64 0 0 0 321.82 536.37 L 321.82 482.73" fill="#e7e7e7"/><rect x="321.82" y="482.73" width="53.64" height="53.64" fill="#e9e9e9"/><path d="M 321.82 482.73 A 53.64 53.64 0 0 1 375.46 536.37 L 321.82 536.37" fill="#ebebeb"/><rect x="0" y="536.3636363636364" width="53.63636363636363" height="53.63636363636363" fill="#e8e8e8"/><rect x="0" y="536.36" width="26.82" height="26.82" fill="#e6e6e6"/><path d="M 0 536.36 A 26.82 26.82 0 0 1 26.82 563.1800000000001 L 0 563.1800000000001" fill="#ededed"/><rect x="26.82" y="536.36" width="26.82" height="26.82" fill="#e8e8e8"/><path d="M 26.82 563.1800000000001 A 26.82 26.82 0 0 1  53.64 536.36 L 53.64 563.1800000000001" fill="#e5e5e5"/><rect x="0" y="563.18" width="26.82" height="26.82" fill="#e7e7e7"/><path d="M 0 590 A 26.82 26.82 0 0 1  26.82 563.18 L 0 590 A 26.82 26.82 0 0 0 26.82 563.18" fill="#eeeeee"/><rect x="26.82" y="563.18" width="26.82" height="26.82" fill="#f1f1f1"/><path d="M 26.82 563.18 A 26.82 26.82 0 0 1 53.64 590 L 26.82 590" fill="#e9e9e9"/><rect x="53.63636363636363" y="536.3636363636364" width="53.63636363636363" height="53.63636363636363" fill="#e8e8e8"/><rect x="53.64" y="536.36" width="26.82" height="26.82" fill="#f2f2f2"/><path d="M 53.64 536.36 A 26.82 26.82 0 0 1 80.46000000000001 563.1800000000001 L 53.64 563.1800000000001" fill="#e7e7e7"/><rect x="80.45" y="536.36" width="26.82" height="26.82" fill="#e4e4e4"/><path d="M 80.45 536.36 A 26.82 26.82 0 0 1  107.27000000000001 563.1800000000001 L 80.45 536.36 A 26.82 26.82 0 0 0 107.27000000000001 563.1800000000001" fill="#e5e5e5"/><rect x="53.64" y="563.18" width="26.82" height="26.82" fill="#e4e4e4"/><path d="M 53.64 563.18 A 26.82 26.82 0 0 1 80.46000000000001 590 L 53.64 590" fill="#ececec"/><rect x="80.45" y="563.18" width="26.82" height="26.82" fill="#e6e6e6"/><path d="M 80.45 590 A 26.82 26.82 0 0 0 107.27000000000001 563.18 L 80.45 563.18" fill="#e4e4e4"/><rect x="107.27272727272727" y="536.3636363636364" width="53.63636363636363" height="53.63636363636363" fill="#e8e8e8"/><rect x="107.27" y="536.36" width="26.82" height="26.82" fill="#ededed"/><path d="M 107.27 536.36 A 26.82 26.82 0 0 1  134.09 563.1800000000001 L 107.27 536.36 A 26.82 26.82 0 0 0 134.09 563.1800000000001" fill="#efefef"/><rect x="134.09" y="536.36" width="26.82" height="26.82" fill="#ebebeb"/><path d="M 134.09 536.36 A 26.82 26.82 0 0 1  160.91 563.1800000000001 L 134.09 536.36 A 26.82 26.82 0 0 0 160.91 563.1800000000001" fill="#f2f2f2"/><rect x="107.27" y="563.18" width="26.82" height="26.82" fill="#eaeaea"/><path d="M 107.27 590 A 26.82 26.82 0 0 1  134.09 563.18 L 107.27 590 A 26.82 26.82 0 0 0 134.09 563.18" fill="#eaeaea"/><rect x="134.09" y="563.18" width="26.82" height="26.82" fill="#e5e5e5"/><path d="M 134.09 563.18 A 26.82 26.82 0 0 0 160.91 590 L 160.91 563.18" fill="#e6e6e6"/><rect x="160.9090909090909" y="536.3636363636364" width="53.63636363636363" height="53.63636363636363" fill="#e8e8e8"/><rect x="160.91" y="536.36" width="26.82" height="26.82" fill="#e5e5e5"/><path d="M 160.91 563.1800000000001 A 26.82 26.82 0 0 1  187.73 536.36 L 160.91 563.1800000000001 A 26.82 26.82 0 0 0 187.73 536.36" fill="#e7e7e7"/><rect x="187.73" y="536.36" width="26.82" height="26.82" fill="#efefef"/><path d="M 187.73 536.36 A 26.82 26.82 0 0 0 214.54999999999998 563.1800000000001 L 214.54999999999998 536.36" fill="#f3f3f3"/><rect x="160.91" y="563.18" width="26.82" height="26.82" fill="#efefef"/><path d="M 160.91 590 A 26.82 26.82 0 0 0 187.73 563.18 L 160.91 563.18" fill="#e4e4e4"/><rect x="187.73" y="563.18" width="26.82" height="26.82" fill="#f2f2f2"/><path d="M 187.73 563.18 A 26.82 26.82 0 0 1 214.54999999999998 590 L 187.73 590" fill="#f3f3f3"/><rect x="214.54545454545453" y="536.3636363636364" width="53.63636363636363" height="53.63636363636363" fill="#e8e8e8"/><rect x="214.55" y="536.36" width="26.82" height="26.82" fill="#e7e7e7"/><path d="M 214.55 536.36 A 26.82 26.82 0 0 1 241.37 563.1800000000001 L 214.55 563.1800000000001" fill="#e6e6e6"/><rect x="241.36" y="536.36" width="26.82" height="26.82" fill="#e4e4e4"/><path d="M 241.36 563.1800000000001 A 26.82 26.82 0 0 1  268.18 536.36 L 268.18 563.1800000000001" fill="#e7e7e7"/><rect x="214.55" y="563.18" width="26.82" height="26.82" fill="#e6e6e6"/><path d="M 214.55 590 A 26.82 26.82 0 0 1  241.37 563.18 L 214.55 590 A 26.82 26.82 0 0 0 241.37 563.18" fill="#e8e8e8"/><rect x="241.36" y="563.18" width="26.82" height="26.82" fill="#e4e4e4"/><path d="M 241.36 590 A 26.82 26.82 0 0 0 268.18 563.18 L 241.36 563.18" fill="#f3f3f3"/><rect x="268.18" y="536.36" width="53.64" height="53.64" fill="#ececec"/><path d="M 268.18 590 A 53.64 53.64 0 0 0 321.82 536.36 L 268.18 536.36" fill="#e6e6e6"/><rect x="321.82" y="536.36" width="53.64" height="53.64" fill="#e6e6e6"/><path d="M 321.82 590 A 53.64 53.64 0 0 1  375.46 536.36 L 321.82 590 A 53.64 53.64 0 0 0 375.46 536.36" fill="#e6e6e6"/></g></svg>