<?xml version="1.0" standalone="no"?><svg xmlns:xlink="http://www.w3.org/1999/xlink" xmlns="http://www.w3.org/2000/svg" viewBox="0 0 3000 1500" preserveAspectRatio="xMaxYMax slice"><g transform="scale(2.542372881355932)"><rect x="0" y="0" width="1180" height="590" fill="#55be7d"/><rect x="0" y="0" width="147.5" height="147.5" fill="#54b174"/><path d="M 0 147.5 A 147.5 147.5 0 0 1  147.5 0 L 147.5 147.5" fill="#529b65"/><rect x="147.5" y="0" width="147.5" height="147.5" fill="#55be7d"/><rect x="147.5" y="0" width="73.75" height="73.75" fill="#77db77"/><path d="M 147.5 0 A 73.75 73.75 0 0 0 221.25 73.75 L 221.25 0" fill="#4f774b"/><rect x="221.25" y="0" width="73.75" height="73.75" fill="#63ca7a"/><path d="M 221.25 0 A 73.75 73.75 0 0 0 295 73.75 L 295 0" fill="#539f67"/><rect x="147.5" y="73.75" width="73.75" height="73.75" fill="#507b4e"/><path d="M 147.5 147.5 A 73.75 73.75 0 0 1  221.25 73.75 L 147.5 147.5 A 73.75 73.75 0 0 0 221.25 73.75" fill="#8ff072"/><rect x="221.25" y="73.75" width="73.75" height="73.75" fill="#8aeb73"/><path d="M 221.25 73.75 A 73.75 73.75 0 0 1  295 147.5 L 221.25 73.75 A 73.75 73.75 0 0 0 295 147.5" fill="#529b65"/><rect x="295" y="0" width="147.5" height="147.5" fill="#55bd7d"/><path d="M 295 147.5 A 147.5 147.5 0 0 0 442.5 0 L 295 0" fill="#6ad079"/><rect x="442.5" y="0" width="147.5" height="147.5" fill="#518f5c"/><path d="M 442.5 0 A 147.5 147.5 0 0 0 590 147.5 L 590 0" fill="#87e973"/><rect x="590" y="0" width="147.5" height="147.5" fill="#55be7d"/><rect x="590" y="0" width="73.75" height="73.75" fill="#4f7247"/><path d="M 590 73.75 A 73.75 73.75 0 0 1  663.75 0 L 663.75 73.75" fill="#61c87b"/><rect x="663.75" y="0" width="73.75" height="73.75" fill="#518e5b"/><path d="M 663.75 0 A 73.75 73.75 0 0 1  737.5 73.75 L 663.75 0 A 73.75 73.75 0 0 0 737.5 73.75" fill="#529761"/><rect x="590" y="73.75" width="73.75" height="73.75" fill="#54b778"/><path d="M 590 73.75 A 73.75 73.75 0 0 1 663.75 147.5 L 590 147.5" fill="#87e973"/><rect x="663.75" y="73.75" width="73.75" height="73.75" fill="#507b4e"/><path d="M 663.75 73.75 A 73.75 73.75 0 0 1  737.5 147.5 L 663.75 73.75 A 73.75 73.75 0 0 0 737.5 147.5" fill="#54ad71"/><rect x="737.5" y="0" width="147.5" height="147.5" fill="#529661"/><path d="M 737.5 147.5 A 147.5 147.5 0 0 0 885 0 L 737.5 0" fill="#53a96e"/><rect x="885" y="0" width="147.5" height="147.5" fill="#55be7d"/><rect x="885" y="0" width="73.75" height="73.75" fill="#529560"/><path d="M 885 73.75 A 73.75 73.75 0 0 1  958.75 0 L 885 73.75 A 73.75 73.75 0 0 0 958.75 0" fill="#4f7248"/><rect x="958.75" y="0" width="73.75" height="73.75" fill="#60c87b"/><path d="M 958.75 0 A 73.75 73.75 0 0 0 1032.5 73.75 L 1032.5 0" fill="#8aec73"/><rect x="885" y="73.75" width="73.75" height="73.75" fill="#518d5b"/><path d="M 885 147.5 A 73.75 73.75 0 0 0 958.75 73.75 L 885 73.75" fill="#507e50"/><rect x="958.75" y="73.75" width="73.75" height="73.75" fill="#68ce79"/><path d="M 958.75 73.75 A 73.75 73.75 0 0 1  1032.5 147.5 L 958.75 73.75 A 73.75 73.75 0 0 0 1032.5 147.5" fill="#53a56c"/><rect x="1032.5" y="0" width="147.5" height="147.5" fill="#55be7d"/><rect x="1032.5" y="0" width="73.75" height="73.75" fill="#71d678"/><path d="M 1032.5 73.75 A 73.75 73.75 0 0 0 1106.25 0 L 1032.5 0" fill="#68cf79"/><rect x="1106.25" y="0" width="73.75" height="73.75" fill="#5ac27c"/><path d="M 1106.25 73.75 A 73.75 73.75 0 0 0 1180 0 L 1106.25 0" fill="#54b375"/><rect x="1032.5" y="73.75" width="73.75" height="73.75" fill="#518a58"/><path d="M 1032.5 73.75 A 73.75 73.75 0 0 1  1106.25 147.5 L 1032.5 73.75 A 73.75 73.75 0 0 0 1106.25 147.5" fill="#518c5a"/><rect x="1106.25" y="73.75" width="73.75" height="73.75" fill="#53a269"/><path d="M 1106.25 147.5 A 73.75 73.75 0 0 1  1180 73.75 L 1180 147.5" fill="#8ff072"/><rect x="0" y="147.5" width="147.5" height="147.5" fill="#55be7d"/><rect x="0" y="147.5" width="73.75" height="73.75" fill="#53a56b"/><path d="M 0 147.5 A 73.75 73.75 0 0 1  73.75 221.25 L 0 147.5 A 73.75 73.75 0 0 0 73.75 221.25" fill="#7de175"/><rect x="73.75" y="147.5" width="73.75" height="73.75" fill="#79dd76"/><path d="M 73.75 147.5 A 73.75 73.75 0 0 0 147.5 221.25 L 147.5 147.5" fill="#77db77"/><rect x="0" y="221.25" width="73.75" height="73.75" fill="#8fef72"/><path d="M 0 295 A 73.75 73.75 0 0 1  73.75 221.25 L 73.75 295" fill="#53a169"/><rect x="73.75" y="221.25" width="73.75" height="73.75" fill="#518958"/><path d="M 73.75 295 A 73.75 73.75 0 0 0 147.5 221.25 L 73.75 221.25" fill="#55b97a"/><rect x="147.5" y="147.5" width="147.5" height="147.5" fill="#53a96e"/><path d="M 147.5 147.5 A 147.5 147.5 0 0 1 295 295 L 147.5 295" fill="#86e874"/><rect x="295" y="147.5" width="147.5" height="147.5" fill="#55be7d"/><rect x="295" y="147.5" width="73.75" height="73.75" fill="#53a56b"/><path d="M 295 147.5 A 73.75 73.75 0 0 1 368.75 221.25 L 295 221.25" fill="#529b65"/><rect x="368.75" y="147.5" width="73.75" height="73.75" fill="#5cc47c"/><path d="M 368.75 147.5 A 73.75 73.75 0 0 0 442.5 221.25 L 442.5 147.5" fill="#74d977"/><rect x="295" y="221.25" width="73.75" height="73.75" fill="#54ac70"/><path d="M 295 295 A 73.75 73.75 0 0 1  368.75 221.25 L 295 295 A 73.75 73.75 0 0 0 368.75 221.25" fill="#6bd179"/><rect x="368.75" y="221.25" width="73.75" height="73.75" fill="#58c07d"/><path d="M 368.75 221.25 A 73.75 73.75 0 0 1 442.5 295 L 368.75 295" fill="#88ea73"/><rect x="442.5" y="147.5" width="147.5" height="147.5" fill="#55be7d"/><rect x="442.5" y="147.5" width="73.75" height="73.75" fill="#7de075"/><path d="M 442.5 221.25 A 73.75 73.75 0 0 0 516.25 147.5 L 442.5 147.5" fill="#62ca7a"/><rect x="516.25" y="147.5" width="73.75" height="73.75" fill="#61c87b"/><path d="M 516.25 147.5 A 73.75 73.75 0 0 0 590 221.25 L 590 147.5" fill="#80e375"/><rect x="442.5" y="221.25" width="73.75" height="73.75" fill="#64cb7a"/><path d="M 442.5 295 A 73.75 73.75 0 0 1  516.25 221.25 L 442.5 295 A 73.75 73.75 0 0 0 516.25 221.25" fill="#508253"/><rect x="516.25" y="221.25" width="73.75" height="73.75" fill="#529762"/><path d="M 516.25 295 A 73.75 73.75 0 0 1  590 221.25 L 590 295" fill="#54b878"/><rect x="590" y="147.5" width="147.5" height="147.5" fill="#5cc47c"/><path d="M 590 295 A 147.5 147.5 0 0 1  737.5 147.5 L 737.5 295" fill="#8ced73"/><rect x="737.5" y="147.5" width="147.5" height="147.5" fill="#54b476"/><path d="M 737.5 147.5 A 147.5 147.5 0 0 0 885 295 L 885 147.5" fill="#6ad079"/><rect x="885" y="147.5" width="147.5" height="147.5" fill="#529661"/><path d="M 885 147.5 A 147.5 147.5 0 0 1 1032.5 295 L 885 295" fill="#65cc7a"/><rect x="1032.5" y="147.5" width="147.5" height="147.5" fill="#55be7d"/><rect x="1032.5" y="147.5" width="73.75" height="73.75" fill="#8eee72"/><path d="M 1032.5 221.25 A 73.75 73.75 0 0 0 1106.25 147.5 L 1032.5 147.5" fill="#529661"/><rect x="1106.25" y="147.5" width="73.75" height="73.75" fill="#54ad71"/><path d="M 1106.25 147.5 A 73.75 73.75 0 0 0 1180 221.25 L 1180 147.5" fill="#54ac70"/><rect x="1032.5" y="221.25" width="73.75" height="73.75" fill="#6ed378"/><path d="M 1032.5 295 A 73.75 73.75 0 0 1  1106.25 221.25 L 1032.5 295 A 73.75 73.75 0 0 0 1106.25 221.25" fill="#8ff072"/><rect x="1106.25" y="221.25" width="73.75" height="73.75" fill="#88ea73"/><path d="M 1106.25 221.25 A 73.75 73.75 0 0 0 1180 295 L 1180 221.25" fill="#53aa6f"/><rect x="0" y="295" width="147.5" height="147.5" fill="#55be7d"/><rect x="0" y="295" width="73.75" height="73.75" fill="#508353"/><path d="M 0 295 A 73.75 73.75 0 0 1 73.75 368.75 L 0 368.75" fill="#8fef72"/><rect x="73.75" y="295" width="73.75" height="73.75" fill="#518f5c"/><path d="M 73.75 368.75 A 73.75 73.75 0 0 1  147.5 295 L 147.5 368.75" fill="#59c17c"/><rect x="0" y="368.75" width="73.75" height="73.75" fill="#7ee175"/><path d="M 0 442.5 A 73.75 73.75 0 0 1  73.75 368.75 L 73.75 442.5" fill="#77db76"/><rect x="73.75" y="368.75" width="73.75" height="73.75" fill="#51915d"/><path d="M 73.75 368.75 A 73.75 73.75 0 0 1 147.5 442.5 L 73.75 442.5" fill="#518b59"/><rect x="147.5" y="295" width="147.5" height="147.5" fill="#4f7449"/><path d="M 147.5 442.5 A 147.5 147.5 0 0 1  295 295 L 147.5 442.5 A 147.5 147.5 0 0 0 295 295" fill="#52915e"/><rect x="295" y="295" width="147.5" height="147.5" fill="#75d977"/><path d="M 295 442.5 A 147.5 147.5 0 0 0 442.5 295 L 295 295" fill="#508454"/><rect x="442.5" y="295" width="147.5" height="147.5" fill="#5bc37c"/><path d="M 442.5 295 A 147.5 147.5 0 0 1 590 442.5 L 442.5 442.5" fill="#529c65"/><rect x="590" y="295" width="147.5" height="147.5" fill="#55be7d"/><rect x="590" y="295" width="73.75" height="73.75" fill="#65cc7a"/><path d="M 590 368.75 A 73.75 73.75 0 0 1  663.75 295 L 590 368.75 A 73.75 73.75 0 0 0 663.75 295" fill="#62c97b"/><rect x="663.75" y="295" width="73.75" height="73.75" fill="#76db77"/><path d="M 663.75 368.75 A 73.75 73.75 0 0 1  737.5 295 L 663.75 368.75 A 73.75 73.75 0 0 0 737.5 295" fill="#51915d"/><rect x="590" y="368.75" width="73.75" height="73.75" fill="#518857"/><path d="M 590 442.5 A 73.75 73.75 0 0 1  663.75 368.75 L 590 442.5 A 73.75 73.75 0 0 0 663.75 368.75" fill="#5ac37c"/><rect x="663.75" y="368.75" width="73.75" height="73.75" fill="#75da77"/><path d="M 663.75 368.75 A 73.75 73.75 0 0 0 737.5 442.5 L 737.5 368.75" fill="#87e973"/><rect x="737.5" y="295" width="147.5" height="147.5" fill="#60c77b"/><path d="M 737.5 295 A 147.5 147.5 0 0 0 885 442.5 L 885 295" fill="#62c97b"/><rect x="885" y="295" width="147.5" height="147.5" fill="#55be7d"/><rect x="885" y="295" width="73.75" height="73.75" fill="#4f764b"/><path d="M 885 295 A 73.75 73.75 0 0 0 958.75 368.75 L 958.75 295" fill="#6bd179"/><rect x="958.75" y="295" width="73.75" height="73.75" fill="#85e774"/><path d="M 958.75 368.75 A 73.75 73.75 0 0 0 1032.5 295 L 958.75 295" fill="#53a36a"/><rect x="885" y="368.75" width="73.75" height="73.75" fill="#507d50"/><path d="M 885 442.5 A 73.75 73.75 0 0 1  958.75 368.75 L 958.75 442.5" fill="#66cd7a"/><rect x="958.75" y="368.75" width="73.75" height="73.75" fill="#7ee175"/><path d="M 958.75 442.5 A 73.75 73.75 0 0 1  1032.5 368.75 L 958.75 442.5 A 73.75 73.75 0 0 0 1032.5 368.75" fill="#53a36a"/><rect x="1032.5" y="295" width="147.5" height="147.5" fill="#55be7d"/><rect x="1032.5" y="295" width="73.75" height="73.75" fill="#529460"/><path d="M 1032.5 295 A 73.75 73.75 0 0 1 1106.25 368.75 L 1032.5 368.75" fill="#508051"/><rect x="1106.25" y="295" width="73.75" height="73.75" fill="#508253"/><path d="M 1106.25 295 A 73.75 73.75 0 0 1  1180 368.75 L 1106.25 295 A 73.75 73.75 0 0 0 1180 368.75" fill="#54ae71"/><rect x="1032.5" y="368.75" width="73.75" height="73.75" fill="#65cc7a"/><path d="M 1032.5 442.5 A 73.75 73.75 0 0 1  1106.25 368.75 L 1032.5 442.5 A 73.75 73.75 0 0 0 1106.25 368.75" fill="#518e5b"/><rect x="1106.25" y="368.75" width="73.75" height="73.75" fill="#8ff072"/><path d="M 1106.25 368.75 A 73.75 73.75 0 0 1  1180 442.5 L 1106.25 368.75 A 73.75 73.75 0 0 0 1180 442.5" fill="#55ba7a"/><rect x="0" y="442.5" width="147.5" height="147.5" fill="#55be7d"/><rect x="0" y="442.5" width="73.75" height="73.75" fill="#81e475"/><path d="M 0 442.5 A 73.75 73.75 0 0 1 73.75 516.25 L 0 516.25" fill="#87e973"/><rect x="73.75" y="442.5" width="73.75" height="73.75" fill="#80e375"/><path d="M 73.75 442.5 A 73.75 73.75 0 0 0 147.5 516.25 L 147.5 442.5" fill="#71d678"/><rect x="0" y="516.25" width="73.75" height="73.75" fill="#53a66c"/><path d="M 0 516.25 A 73.75 73.75 0 0 1  73.75 590 L 0 516.25 A 73.75 73.75 0 0 0 73.75 590" fill="#77db77"/><rect x="73.75" y="516.25" width="73.75" height="73.75" fill="#5ec57b"/><path d="M 73.75 516.25 A 73.75 73.75 0 0 0 147.5 590 L 147.5 516.25" fill="#5cc47c"/><rect x="147.5" y="442.5" width="147.5" height="147.5" fill="#86e874"/><path d="M 147.5 442.5 A 147.5 147.5 0 0 0 295 590 L 295 442.5" fill="#62c97b"/><rect x="295" y="442.5" width="147.5" height="147.5" fill="#55b879"/><path d="M 295 590 A 147.5 147.5 0 0 1  442.5 442.5 L 442.5 590" fill="#56bf7d"/><rect x="442.5" y="442.5" width="147.5" height="147.5" fill="#55be7d"/><rect x="442.5" y="442.5" width="73.75" height="73.75" fill="#55bb7b"/><path d="M 442.5 442.5 A 73.75 73.75 0 0 0 516.25 516.25 L 516.25 442.5" fill="#55b879"/><rect x="516.25" y="442.5" width="73.75" height="73.75" fill="#54ae72"/><path d="M 516.25 516.25 A 73.75 73.75 0 0 0 590 442.5 L 516.25 442.5" fill="#50784c"/><rect x="442.5" y="516.25" width="73.75" height="73.75" fill="#8bed73"/><path d="M 442.5 516.25 A 73.75 73.75 0 0 1  516.25 590 L 442.5 516.25 A 73.75 73.75 0 0 0 516.25 590" fill="#59c17c"/><rect x="516.25" y="516.25" width="73.75" height="73.75" fill="#72d678"/><path d="M 516.25 590 A 73.75 73.75 0 0 1  590 516.25 L 590 590" fill="#53a56c"/><rect x="590" y="442.5" width="147.5" height="147.5" fill="#55be7d"/><rect x="590" y="442.5" width="73.75" height="73.75" fill="#66cc7a"/><path d="M 590 442.5 A 73.75 73.75 0 0 1 663.75 516.25 L 590 516.25" fill="#54b476"/><rect x="663.75" y="442.5" width="73.75" height="73.75" fill="#6fd478"/><path d="M 663.75 442.5 A 73.75 73.75 0 0 1  737.5 516.25 L 663.75 442.5 A 73.75 73.75 0 0 0 737.5 516.25" fill="#55bd7c"/><rect x="590" y="516.25" width="73.75" height="73.75" fill="#54b577"/><path d="M 590 590 A 73.75 73.75 0 0 1  663.75 516.25 L 663.75 590" fill="#54ac70"/><rect x="663.75" y="516.25" width="73.75" height="73.75" fill="#54b275"/><path d="M 663.75 516.25 A 73.75 73.75 0 0 0 737.5 590 L 737.5 516.25" fill="#52935f"/><rect x="737.5" y="442.5" width="147.5" height="147.5" fill="#55be7d"/><rect x="737.5" y="442.5" width="73.75" height="73.75" fill="#92f271"/><path d="M 737.5 442.5 A 73.75 73.75 0 0 0 811.25 516.25 L 811.25 442.5" fill="#529661"/><rect x="811.25" y="442.5" width="73.75" height="73.75" fill="#54ad71"/><path d="M 811.25 442.5 A 73.75 73.75 0 0 1 885 516.25 L 811.25 516.25" fill="#72d678"/><rect x="737.5" y="516.25" width="73.75" height="73.75" fill="#518b59"/><path d="M 737.5 516.25 A 73.75 73.75 0 0 1  811.25 590 L 737.5 516.25 A 73.75 73.75 0 0 0 811.25 590" fill="#7de075"/><rect x="811.25" y="516.25" width="73.75" height="73.75" fill="#508454"/><path d="M 811.25 516.25 A 73.75 73.75 0 0 1 885 590 L 811.25 590" fill="#55bc7c"/><rect x="885" y="442.5" width="147.5" height="147.5" fill="#539f67"/><path d="M 885 590 A 147.5 147.5 0 0 1  1032.5 442.5 L 1032.5 590" fill="#508253"/><rect x="1032.5" y="442.5" width="147.5" height="147.5" fill="#54b677"/><path d="M 1032.5 442.5 A 147.5 147.5 0 0 1  1180 590 L 1032.5 442.5 A 147.5 147.5 0 0 0 1180 590" fill="#84e674"/></g></svg>