<?xml version="1.0" standalone="no"?><svg xmlns:xlink="http://www.w3.org/1999/xlink" xmlns="http://www.w3.org/2000/svg" viewBox="0 0 3000 1714.2857142857144" preserveAspectRatio="xMaxYMax slice"><g transform="scale(2.9055690072639226)"><rect x="0" y="0" width="1032.5" height="590" fill="#ef1515"/><rect x="0" y="0" width="147.5" height="147.5" fill="#ef1515"/><rect x="0" y="0" width="73.75" height="73.75" fill="#f01b17"/><path d="M 0 73.75 A 73.75 73.75 0 0 0 73.75 0 L 0 0" fill="#f34524"/><rect x="73.75" y="0" width="73.75" height="73.75" fill="#f55b2c"/><path d="M 73.75 73.75 A 73.75 73.75 0 0 1  147.5 0 L 147.5 73.75" fill="#fa3033"/><rect x="0" y="73.75" width="73.75" height="73.75" fill="#f52425"/><path d="M 0 147.5 A 73.75 73.75 0 0 1  73.75 73.75 L 73.75 147.5" fill="#fcac46"/><rect x="73.75" y="73.75" width="73.75" height="73.75" fill="#f42021"/><path d="M 73.75 147.5 A 73.75 73.75 0 0 1  147.5 73.75 L 147.5 147.5" fill="#f45128"/><rect x="147.5" y="0" width="147.5" height="147.5" fill="#f31e1f"/><path d="M 147.5 0 A 147.5 147.5 0 0 1 295 147.5 L 147.5 147.5" fill="#f6642e"/><rect x="295" y="0" width="147.5" height="147.5" fill="#ef1515"/><rect x="295" y="0" width="73.75" height="73.75" fill="#f55a2b"/><path d="M 295 0 A 73.75 73.75 0 0 0 368.75 73.75 L 368.75 0" fill="#f01818"/><rect x="368.75" y="0" width="73.75" height="73.75" fill="#f45028"/><path d="M 368.75 73.75 A 73.75 73.75 0 0 1  442.5 0 L 368.75 73.75 A 73.75 73.75 0 0 0 442.5 0" fill="#fdaf46"/><rect x="295" y="73.75" width="73.75" height="73.75" fill="#fa3032"/><path d="M 295 73.75 A 73.75 73.75 0 0 1 368.75 147.5 L 295 147.5" fill="#f21c1c"/><rect x="368.75" y="73.75" width="73.75" height="73.75" fill="#f62628"/><path d="M 368.75 73.75 A 73.75 73.75 0 0 0 442.5 147.5 L 442.5 73.75" fill="#f42122"/><rect x="442.5" y="0" width="147.5" height="147.5" fill="#ef1515"/><rect x="442.5" y="0" width="73.75" height="73.75" fill="#fc3336"/><path d="M 442.5 0 A 73.75 73.75 0 0 1 516.25 73.75 L 442.5 73.75" fill="#f42021"/><rect x="516.25" y="0" width="73.75" height="73.75" fill="#f21d1e"/><path d="M 516.25 0 A 73.75 73.75 0 0 1  590 73.75 L 516.25 0 A 73.75 73.75 0 0 0 590 73.75" fill="#fe393c"/><rect x="442.5" y="73.75" width="73.75" height="73.75" fill="#f42122"/><path d="M 442.5 147.5 A 73.75 73.75 0 0 1  516.25 73.75 L 516.25 147.5" fill="#fdb348"/><rect x="516.25" y="73.75" width="73.75" height="73.75" fill="#f76a30"/><path d="M 516.25 147.5 A 73.75 73.75 0 0 1  590 73.75 L 590 147.5" fill="#f87734"/><rect x="590" y="0" width="147.5" height="147.5" fill="#ef1515"/><rect x="590" y="0" width="73.75" height="73.75" fill="#f01818"/><path d="M 590 73.75 A 73.75 73.75 0 0 1  663.75 0 L 663.75 73.75" fill="#f2341f"/><rect x="663.75" y="0" width="73.75" height="73.75" fill="#f55329"/><path d="M 663.75 0 A 73.75 73.75 0 0 1  737.5 73.75 L 663.75 0 A 73.75 73.75 0 0 0 737.5 73.75" fill="#f11a1b"/><rect x="590" y="73.75" width="73.75" height="73.75" fill="#f6672f"/><path d="M 590 73.75 A 73.75 73.75 0 0 0 663.75 147.5 L 663.75 73.75" fill="#fcaa45"/><rect x="663.75" y="73.75" width="73.75" height="73.75" fill="#f6642e"/><path d="M 663.75 147.5 A 73.75 73.75 0 0 1  737.5 73.75 L 737.5 147.5" fill="#fa2e31"/><rect x="737.5" y="0" width="147.5" height="147.5" fill="#ef1515"/><rect x="737.5" y="0" width="73.75" height="73.75" fill="#f55c2c"/><path d="M 737.5 73.75 A 73.75 73.75 0 0 1  811.25 0 L 811.25 73.75" fill="#f55d2c"/><rect x="811.25" y="0" width="73.75" height="73.75" fill="#fca643"/><path d="M 811.25 73.75 A 73.75 73.75 0 0 0 885 0 L 811.25 0" fill="#fa8d3b"/><rect x="737.5" y="73.75" width="73.75" height="73.75" fill="#f34725"/><path d="M 737.5 147.5 A 73.75 73.75 0 0 1  811.25 73.75 L 811.25 147.5" fill="#f52426"/><rect x="811.25" y="73.75" width="73.75" height="73.75" fill="#ffc74e"/><path d="M 811.25 73.75 A 73.75 73.75 0 0 1  885 147.5 L 811.25 73.75 A 73.75 73.75 0 0 0 885 147.5" fill="#f9893a"/><rect x="885" y="0" width="147.5" height="147.5" fill="#ef1515"/><rect x="885" y="0" width="73.75" height="73.75" fill="#f42122"/><path d="M 885 73.75 A 73.75 73.75 0 0 1  958.75 0 L 958.75 73.75" fill="#fa933d"/><rect x="958.75" y="0" width="73.75" height="73.75" fill="#febb4a"/><path d="M 958.75 73.75 A 73.75 73.75 0 0 1  1032.5 0 L 958.75 73.75 A 73.75 73.75 0 0 0 1032.5 0" fill="#fa923d"/><rect x="885" y="73.75" width="73.75" height="73.75" fill="#f52425"/><path d="M 885 147.5 A 73.75 73.75 0 0 1  958.75 73.75 L 885 147.5 A 73.75 73.75 0 0 0 958.75 73.75" fill="#fc3538"/><rect x="958.75" y="73.75" width="73.75" height="73.75" fill="#f87a35"/><path d="M 958.75 73.75 A 73.75 73.75 0 0 0 1032.5 147.5 L 1032.5 73.75" fill="#f21c1c"/><rect x="0" y="147.5" width="147.5" height="147.5" fill="#f34424"/><path d="M 0 295 A 147.5 147.5 0 0 0 147.5 147.5 L 0 147.5" fill="#fc3538"/><rect x="147.5" y="147.5" width="147.5" height="147.5" fill="#f42122"/><path d="M 147.5 147.5 A 147.5 147.5 0 0 1 295 295 L 147.5 295" fill="#fca342"/><rect x="295" y="147.5" width="147.5" height="147.5" fill="#fc3436"/><path d="M 295 295 A 147.5 147.5 0 0 0 442.5 147.5 L 295 147.5" fill="#f92d2f"/><rect x="442.5" y="147.5" width="147.5" height="147.5" fill="#f87e37"/><path d="M 442.5 147.5 A 147.5 147.5 0 0 1  590 295 L 442.5 147.5 A 147.5 147.5 0 0 0 590 295" fill="#f31e1f"/><rect x="590" y="147.5" width="147.5" height="147.5" fill="#ef1515"/><rect x="590" y="147.5" width="73.75" height="73.75" fill="#ef1515"/><path d="M 590 147.5 A 73.75 73.75 0 0 1  663.75 221.25 L 590 147.5 A 73.75 73.75 0 0 0 663.75 221.25" fill="#fb3133"/><rect x="663.75" y="147.5" width="73.75" height="73.75" fill="#f34324"/><path d="M 663.75 147.5 A 73.75 73.75 0 0 0 737.5 221.25 L 737.5 147.5" fill="#fb9a3f"/><rect x="590" y="221.25" width="73.75" height="73.75" fill="#f9873a"/><path d="M 590 295 A 73.75 73.75 0 0 1  663.75 221.25 L 663.75 295" fill="#ef1816"/><rect x="663.75" y="221.25" width="73.75" height="73.75" fill="#f87734"/><path d="M 663.75 221.25 A 73.75 73.75 0 0 1  737.5 295 L 663.75 221.25 A 73.75 73.75 0 0 0 737.5 295" fill="#fec44d"/><rect x="737.5" y="147.5" width="147.5" height="147.5" fill="#ef1515"/><rect x="737.5" y="147.5" width="73.75" height="73.75" fill="#fec14c"/><path d="M 737.5 221.25 A 73.75 73.75 0 0 1  811.25 147.5 L 737.5 221.25 A 73.75 73.75 0 0 0 811.25 147.5" fill="#f82b2d"/><rect x="811.25" y="147.5" width="73.75" height="73.75" fill="#fa943e"/><path d="M 811.25 147.5 A 73.75 73.75 0 0 1  885 221.25 L 811.25 147.5 A 73.75 73.75 0 0 0 885 221.25" fill="#fca844"/><rect x="737.5" y="221.25" width="73.75" height="73.75" fill="#fb3335"/><path d="M 737.5 221.25 A 73.75 73.75 0 0 1  811.25 295 L 737.5 221.25 A 73.75 73.75 0 0 0 811.25 295" fill="#fc3537"/><rect x="811.25" y="221.25" width="73.75" height="73.75" fill="#f66a30"/><path d="M 811.25 221.25 A 73.75 73.75 0 0 1  885 295 L 811.25 221.25 A 73.75 73.75 0 0 0 885 295" fill="#f87835"/><rect x="885" y="147.5" width="147.5" height="147.5" fill="#febe4b"/><path d="M 885 295 A 147.5 147.5 0 0 1  1032.5 147.5 L 1032.5 295" fill="#f92d30"/><rect x="0" y="295" width="147.5" height="147.5" fill="#ef1515"/><rect x="0" y="295" width="73.75" height="73.75" fill="#f02018"/><path d="M 0 295 A 73.75 73.75 0 0 1  73.75 368.75 L 0 295 A 73.75 73.75 0 0 0 73.75 368.75" fill="#f23720"/><rect x="73.75" y="295" width="73.75" height="73.75" fill="#f66a30"/><path d="M 73.75 368.75 A 73.75 73.75 0 0 1  147.5 295 L 73.75 368.75 A 73.75 73.75 0 0 0 147.5 295" fill="#fdb247"/><rect x="0" y="368.75" width="73.75" height="73.75" fill="#f92c2e"/><path d="M 0 442.5 A 73.75 73.75 0 0 0 73.75 368.75 L 0 368.75" fill="#febf4c"/><rect x="73.75" y="368.75" width="73.75" height="73.75" fill="#ef1615"/><path d="M 73.75 368.75 A 73.75 73.75 0 0 1  147.5 442.5 L 73.75 368.75 A 73.75 73.75 0 0 0 147.5 442.5" fill="#febe4b"/><rect x="147.5" y="295" width="147.5" height="147.5" fill="#fca944"/><path d="M 147.5 295 A 147.5 147.5 0 0 1 295 442.5 L 147.5 442.5" fill="#f92e30"/><rect x="295" y="295" width="147.5" height="147.5" fill="#f62728"/><path d="M 295 295 A 147.5 147.5 0 0 1  442.5 442.5 L 295 295 A 147.5 147.5 0 0 0 442.5 442.5" fill="#fa3133"/><rect x="442.5" y="295" width="147.5" height="147.5" fill="#ef1615"/><path d="M 442.5 295 A 147.5 147.5 0 0 1  590 442.5 L 442.5 295 A 147.5 147.5 0 0 0 590 442.5" fill="#f6652f"/><rect x="590" y="295" width="147.5" height="147.5" fill="#ef1515"/><rect x="590" y="295" width="73.75" height="73.75" fill="#fc3436"/><path d="M 590 295 A 73.75 73.75 0 0 1 663.75 368.75 L 590 368.75" fill="#f34625"/><rect x="663.75" y="295" width="73.75" height="73.75" fill="#f55a2b"/><path d="M 663.75 295 A 73.75 73.75 0 0 0 737.5 368.75 L 737.5 295" fill="#fa933d"/><rect x="590" y="368.75" width="73.75" height="73.75" fill="#f55b2b"/><path d="M 590 368.75 A 73.75 73.75 0 0 0 663.75 442.5 L 663.75 368.75" fill="#f62526"/><rect x="663.75" y="368.75" width="73.75" height="73.75" fill="#fc3538"/><path d="M 663.75 368.75 A 73.75 73.75 0 0 1  737.5 442.5 L 663.75 368.75 A 73.75 73.75 0 0 0 737.5 442.5" fill="#f87634"/><rect x="737.5" y="295" width="147.5" height="147.5" fill="#fec44d"/><path d="M 737.5 295 A 147.5 147.5 0 0 1  885 442.5 L 737.5 295 A 147.5 147.5 0 0 0 885 442.5" fill="#febe4b"/><rect x="885" y="295" width="147.5" height="147.5" fill="#f98338"/><path d="M 885 442.5 A 147.5 147.5 0 0 0 1032.5 295 L 885 295" fill="#fca343"/><rect x="0" y="442.5" width="147.5" height="147.5" fill="#ef1616"/><path d="M 0 442.5 A 147.5 147.5 0 0 1 147.5 590 L 0 590" fill="#f87e37"/><rect x="147.5" y="442.5" width="147.5" height="147.5" fill="#f42021"/><path d="M 147.5 590 A 147.5 147.5 0 0 1  295 442.5 L 295 590" fill="#f5572a"/><rect x="295" y="442.5" width="147.5" height="147.5" fill="#fdb849"/><path d="M 295 442.5 A 147.5 147.5 0 0 1 442.5 590 L 295 590" fill="#f6632e"/><rect x="442.5" y="442.5" width="147.5" height="147.5" fill="#ef1515"/><rect x="442.5" y="442.5" width="73.75" height="73.75" fill="#f21c1c"/><path d="M 442.5 516.25 A 73.75 73.75 0 0 1  516.25 442.5 L 442.5 516.25 A 73.75 73.75 0 0 0 516.25 442.5" fill="#f9883a"/><rect x="516.25" y="442.5" width="73.75" height="73.75" fill="#f87835"/><path d="M 516.25 442.5 A 73.75 73.75 0 0 1  590 516.25 L 516.25 442.5 A 73.75 73.75 0 0 0 590 516.25" fill="#fc3537"/><rect x="442.5" y="516.25" width="73.75" height="73.75" fill="#f44d27"/><path d="M 442.5 590 A 73.75 73.75 0 0 0 516.25 516.25 L 442.5 516.25" fill="#febd4b"/><rect x="516.25" y="516.25" width="73.75" height="73.75" fill="#fb9c40"/><path d="M 516.25 590 A 73.75 73.75 0 0 1  590 516.25 L 590 590" fill="#f52526"/><rect x="590" y="442.5" width="147.5" height="147.5" fill="#f55b2c"/><path d="M 590 442.5 A 147.5 147.5 0 0 0 737.5 590 L 737.5 442.5" fill="#fa3133"/><rect x="737.5" y="442.5" width="147.5" height="147.5" fill="#fb3335"/><path d="M 737.5 590 A 147.5 147.5 0 0 1  885 442.5 L 737.5 590 A 147.5 147.5 0 0 0 885 442.5" fill="#f2341f"/><rect x="885" y="442.5" width="147.5" height="147.5" fill="#fec34d"/><path d="M 885 442.5 A 147.5 147.5 0 0 1  1032.5 590 L 885 442.5 A 147.5 147.5 0 0 0 1032.5 590" fill="#f92c2e"/></g></svg>